<svg xmlns="http://www.w3.org/2000/svg" viewBox="0 0 1280 880" width="1280" height="880" role="img"><rect x="0" y="0" width="1280" height="880" rx="0" fill="#f4f4f4" stroke="none" stroke-width="1" opacity="1"/><rect x="0" y="0" width="1280" height="880" rx="0" fill="#ffffff" stroke="none" stroke-width="1" opacity="1"/><rect x="0" y="0" width="1280" height="40" rx="0" fill="#ffffff" stroke="none" stroke-width="1" opacity="1"/><circle cx="24" cy="20" r="6" fill="#e5e0dd" stroke="none" stroke-width="1"/><circle cx="44" cy="20" r="6" fill="#e5e0dd" stroke="none" stroke-width="1"/><circle cx="64" cy="20" r="6" fill="#e5e0dd" stroke="none" stroke-width="1"/><rect x="0" y="39" width="1280" height="1" rx="0" fill="#ebebeb" stroke="none" stroke-width="1" opacity="1"/><rect x="0" y="40" width="224" height="840" rx="0" fill="#ffffff" stroke="none" stroke-width="1" opacity="1"/><rect x="223" y="40" width="1" height="840" rx="0" fill="#ebebeb" stroke="none" stroke-width="1" opacity="1"/><g transform="translate(24 53)"><path d="M12 2l1.8 6.2L20 10l-6.2 1.8L12 18l-1.8-6.2L4 10l6.2-1.8z" transform="scale(0.9)" fill="#b79ca0"/></g><text x="48" y="74" font-family="Satoshi, -apple-system, 'Segoe UI', Roboto, Helvetica, Arial, sans-serif" font-size="17" font-weight="300" fill="#181818" text-anchor="start">Harmon</text><text x="112" y="74" font-family="Satoshi, -apple-system, 'Segoe UI', Roboto, Helvetica, Arial, sans-serif" font-size="17" font-weight="600" fill="#181818" text-anchor="start">IA</text><g transform="translate(24 120) scale(0.8333333333333334)" fill="none" stroke="#767676" stroke-width="1.8" stroke-linecap="round" stroke-linejoin="round"><path d="M3 11l9-8 9 8 M5 10v10h5v-6h4v6h5V10"/></g><text x="56" y="134" font-family="Satoshi, -apple-system, 'Segoe UI', Roboto, Helvetica, Arial, sans-serif" font-size="14.5" font-weight="400" fill="#666666" text-anchor="start">Início</text><g transform="translate(24 166) scale(0.8333333333333334)" fill="none" stroke="#767676" stroke-width="1.8" stroke-linecap="round" stroke-linejoin="round"><path d="M4 6h16v14H4z M4 10h16 M8 3v4 M16 3v4"/></g><text x="56" y="180" font-family="Satoshi, -apple-system, 'Segoe UI', Roboto, Helvetica, Arial, sans-serif" font-size="14.5" font-weight="400" fill="#666666" text-anchor="start">Agenda</text><g transform="translate(24 212) scale(0.8333333333333334)" fill="none" stroke="#767676" stroke-width="1.8" stroke-linecap="round" stroke-linejoin="round"><circle cx="6" cy="6" r="2"/><circle cx="6" cy="18" r="2"/><path d="M8.5 7.5L20 18 M8.5 16.5L20 6"/></g><text x="56" y="226" font-family="Satoshi, -apple-system, 'Segoe UI', Roboto, Helvetica, Arial, sans-serif" font-size="14.5" font-weight="400" fill="#666666" text-anchor="start">Serviços</text><g transform="translate(24 258) scale(0.8333333333333334)" fill="none" stroke="#767676" stroke-width="1.8" stroke-linecap="round" stroke-linejoin="round"><path d="M12 3l8 4.5v9L12 21l-8-4.5v-9z M4 7.5l8 4.5 8-4.5 M12 12v9"/></g><text x="56" y="272" font-family="Satoshi, -apple-system, 'Segoe UI', Roboto, Helvetica, Arial, sans-serif" font-size="14.5" font-weight="400" fill="#666666" text-anchor="start">Estoque</text><g transform="translate(24 304) scale(0.8333333333333334)" fill="none" stroke="#767676" stroke-width="1.8" stroke-linecap="round" stroke-linejoin="round"><path d="M9 11a3.2 3.2 0 100-6.4 3.2 3.2 0 000 6.4 M3.5 20c0-3.2 2.5-5.2 5.5-5.2s5.5 2 5.5 5.2 M17 4.2a3 3 0 010 6 M21 20c0-2.6-1.5-4.5-3.6-5.1"/></g><text x="56" y="318" font-family="Satoshi, -apple-system, 'Segoe UI', Roboto, Helvetica, Arial, sans-serif" font-size="14.5" font-weight="400" fill="#666666" text-anchor="start">Clientes</text><g transform="translate(24 350) scale(0.8333333333333334)" fill="none" stroke="#767676" stroke-width="1.8" stroke-linecap="round" stroke-linejoin="round"><path d="M9 4.5h6v3H9z M8 6H5.5v15h13V6H16 M9 12h6 M9 16h4"/></g><text x="56" y="364" font-family="Satoshi, -apple-system, 'Segoe UI', Roboto, Helvetica, Arial, sans-serif" font-size="14.5" font-weight="400" fill="#666666" text-anchor="start">Histórico</text><g transform="translate(24 396) scale(0.8333333333333334)" fill="none" stroke="#767676" stroke-width="1.8" stroke-linecap="round" stroke-linejoin="round"><circle cx="16.5" cy="12.5" r="1.3" fill="#767676" stroke="none"/><path d="M3.5 7.5h15a1.5 1.5 0 011.5 1.5v8a1.5 1.5 0 01-1.5 1.5h-15V7.5z"/></g><text x="56" y="410" font-family="Satoshi, -apple-system, 'Segoe UI', Roboto, Helvetica, Arial, sans-serif" font-size="14.5" font-weight="400" fill="#666666" text-anchor="start">Fluxo de Caixa</text><rect x="0" y="810" width="224" height="1" rx="0" fill="#ebebeb" stroke="none" stroke-width="1" opacity="1"/><circle cx="36" cy="842" r="17" fill="#d9c2c6" stroke="none" stroke-width="1"/><text x="36" y="847" font-family="Satoshi, -apple-system, 'Segoe UI', Roboto, Helvetica, Arial, sans-serif" font-size="12" font-weight="600" fill="#181818" text-anchor="middle">MB</text><text x="62" y="838" font-family="Satoshi, -apple-system, 'Segoe UI', Roboto, Helvetica, Arial, sans-serif" font-size="13" font-weight="400" fill="#181818" text-anchor="start">Marina Braga</text><text x="62" y="856" font-family="Satoshi, -apple-system, 'Segoe UI', Roboto, Helvetica, Arial, sans-serif" font-size="11.5" font-weight="400" fill="#767676" text-anchor="start">marina@studio.com</text><rect x="224" y="40" width="1056" height="64" rx="0" fill="#f4f4f4" stroke="none" stroke-width="1" opacity="1"/><rect x="224" y="103" width="1056" height="1" rx="0" fill="#ebebeb" stroke="none" stroke-width="1" opacity="1"/><text x="252" y="80" font-family="Satoshi, -apple-system, 'Segoe UI', Roboto, Helvetica, Arial, sans-serif" font-size="22" font-weight="400" fill="#181818" text-anchor="start">Configurações</text><g transform="translate(0 104)"><rect x="252" y="28" width="1000" height="150" rx="8" fill="#ffffff" stroke="none" stroke-width="1" opacity="1"/><text x="276" y="68" font-family="Satoshi, -apple-system, 'Segoe UI', Roboto, Helvetica, Arial, sans-serif" font-size="15.5" font-weight="600" fill="#181818" text-anchor="start">Conta Google</text><rect x="276" y="90" width="952" height="68" rx="10" fill="#f4f4f4" stroke="none" stroke-width="1" opacity="1"/><circle cx="310" cy="124" r="18" fill="#ffffff" stroke="#ebebeb" stroke-width="1"/><g transform="translate(299 113) scale(0.95)"><path d="M21 12.2c0-.6-.05-1.2-.15-1.8H12v3.4h5a4.3 4.3 0 01-1.9 2.8v2.3h3a9 9 0 002.9-6.7z" fill="#4285F4"/><path d="M12 21c2.6 0 4.8-.86 6.4-2.3l-3-2.3c-.86.58-2 .92-3.4.92-2.6 0-4.8-1.76-5.6-4.13H3.3v2.6A9 9 0 0012 21z" fill="#34A853"/><path d="M6.4 13.2a5.4 5.4 0 010-3.4V7.2H3.3a9 9 0 000 8.6z" fill="#FBBC05"/><path d="M12 6.9c1.46 0 2.77.5 3.8 1.5l2.84-2.84A9 9 0 003.3 7.2l3.1 2.4C7.2 8.67 9.4 6.9 12 6.9z" fill="#EA4335"/></g><text x="338" y="120" font-family="Satoshi, -apple-system, 'Segoe UI', Roboto, Helvetica, Arial, sans-serif" font-size="14" font-weight="400" fill="#181818" text-anchor="start">marina@studio.com</text><text x="338" y="140" font-family="Satoshi, -apple-system, 'Segoe UI', Roboto, Helvetica, Arial, sans-serif" font-size="12" font-weight="400" fill="#767676" text-anchor="start">Agenda e contatos sincronizados</text><rect x="1102" y="117" width="80.8" height="22" rx="11" fill="#e7efe9" stroke="none" stroke-width="1" opacity="1"/><text x="1110" y="132" font-family="Satoshi, -apple-system, 'Segoe UI', Roboto, Helvetica, Arial, sans-serif" font-size="12" font-weight="500" fill="#4a7c59" text-anchor="start">Conectado</text><rect x="252" y="198" width="1000" height="306" rx="8" fill="#ffffff" stroke="none" stroke-width="1" opacity="1"/><text x="276" y="238" font-family="Satoshi, -apple-system, 'Segoe UI', Roboto, Helvetica, Arial, sans-serif" font-size="15.5" font-weight="600" fill="#181818" text-anchor="start">Privacidade e acesso</text><text x="276" y="288" font-family="Satoshi, -apple-system, 'Segoe UI', Roboto, Helvetica, Arial, sans-serif" font-size="14" font-weight="400" fill="#181818" text-anchor="start">Isolamento de dados por conta</text><text x="276" y="308" font-family="Satoshi, -apple-system, 'Segoe UI', Roboto, Helvetica, Arial, sans-serif" font-size="12" font-weight="400" fill="#767676" text-anchor="start">Cada conta enxerga apenas os próprios dados</text><rect x="1182" y="282" width="46" height="26" rx="13" fill="#181818" stroke="none" stroke-width="1" opacity="1"/><circle cx="1215" cy="295" r="9.5" fill="#fff" stroke="none" stroke-width="1"/><rect x="276" y="320" width="952" height="1" rx="0" fill="#ebebeb" stroke="none" stroke-width="1" opacity="1"/><text x="276" y="350" font-family="Satoshi, -apple-system, 'Segoe UI', Roboto, Helvetica, Arial, sans-serif" font-size="14" font-weight="400" fill="#181818" text-anchor="start">Login somente via Google</text><text x="276" y="370" font-family="Satoshi, -apple-system, 'Segoe UI', Roboto, Helvetica, Arial, sans-serif" font-size="12" font-weight="400" fill="#767676" text-anchor="start">Sem senhas guardadas no app</text><rect x="1182" y="344" width="46" height="26" rx="13" fill="#181818" stroke="none" stroke-width="1" opacity="1"/><circle cx="1215" cy="357" r="9.5" fill="#fff" stroke="none" stroke-width="1"/><rect x="276" y="382" width="952" height="1" rx="0" fill="#ebebeb" stroke="none" stroke-width="1" opacity="1"/><text x="276" y="412" font-family="Satoshi, -apple-system, 'Segoe UI', Roboto, Helvetica, Arial, sans-serif" font-size="14" font-weight="400" fill="#181818" text-anchor="start">Backup automático diário</text><text x="276" y="432" font-family="Satoshi, -apple-system, 'Segoe UI', Roboto, Helvetica, Arial, sans-serif" font-size="12" font-weight="400" fill="#767676" text-anchor="start">Cópia de segurança no seu Drive</text><rect x="1182" y="406" width="46" height="26" rx="13" fill="#181818" stroke="none" stroke-width="1" opacity="1"/><circle cx="1215" cy="419" r="9.5" fill="#fff" stroke="none" stroke-width="1"/><rect x="276" y="444" width="952" height="1" rx="0" fill="#ebebeb" stroke="none" stroke-width="1" opacity="1"/><text x="276" y="474" font-family="Satoshi, -apple-system, 'Segoe UI', Roboto, Helvetica, Arial, sans-serif" font-size="14" font-weight="400" fill="#181818" text-anchor="start">Acesso da equipe (plano Team)</text><text x="276" y="494" font-family="Satoshi, -apple-system, 'Segoe UI', Roboto, Helvetica, Arial, sans-serif" font-size="12" font-weight="400" fill="#767676" text-anchor="start">Permissões por usuário</text><rect x="1182" y="468" width="46" height="26" rx="13" fill="#cfcfcf" stroke="none" stroke-width="1" opacity="1"/><circle cx="1195" cy="481" r="9.5" fill="#fff" stroke="none" stroke-width="1"/></g></svg>