<svg xmlns="http://www.w3.org/2000/svg" viewBox="0 0 1280 880" width="1280" height="880" role="img"><rect x="0" y="0" width="1280" height="880" rx="0" fill="#f4f4f4" stroke="none" stroke-width="1" opacity="1"/><rect x="0" y="0" width="1280" height="880" rx="0" fill="#ffffff" stroke="none" stroke-width="1" opacity="1"/><rect x="0" y="0" width="1280" height="40" rx="0" fill="#ffffff" stroke="none" stroke-width="1" opacity="1"/><circle cx="24" cy="20" r="6" fill="#e5e0dd" stroke="none" stroke-width="1"/><circle cx="44" cy="20" r="6" fill="#e5e0dd" stroke="none" stroke-width="1"/><circle cx="64" cy="20" r="6" fill="#e5e0dd" stroke="none" stroke-width="1"/><rect x="0" y="39" width="1280" height="1" rx="0" fill="#ebebeb" stroke="none" stroke-width="1" opacity="1"/><rect x="0" y="40" width="224" height="840" rx="0" fill="#ffffff" stroke="none" stroke-width="1" opacity="1"/><rect x="223" y="40" width="1" height="840" rx="0" fill="#ebebeb" stroke="none" stroke-width="1" opacity="1"/><g transform="translate(24 53)"><path d="M12 2l1.8 6.2L20 10l-6.2 1.8L12 18l-1.8-6.2L4 10l6.2-1.8z" transform="scale(0.9)" fill="#b79ca0"/></g><text x="48" y="74" font-family="Satoshi, -apple-system, 'Segoe UI', Roboto, Helvetica, Arial, sans-serif" font-size="17" font-weight="300" fill="#181818" text-anchor="start">Harmon</text><text x="112" y="74" font-family="Satoshi, -apple-system, 'Segoe UI', Roboto, Helvetica, Arial, sans-serif" font-size="17" font-weight="600" fill="#181818" text-anchor="start">IA</text><g transform="translate(24 120) scale(0.8333333333333334)" fill="none" stroke="#767676" stroke-width="1.8" stroke-linecap="round" stroke-linejoin="round"><path d="M3 11l9-8 9 8 M5 10v10h5v-6h4v6h5V10"/></g><text x="56" y="134" font-family="Satoshi, -apple-system, 'Segoe UI', Roboto, Helvetica, Arial, sans-serif" font-size="14.5" font-weight="400" fill="#666666" text-anchor="start">Início</text><g transform="translate(24 166) scale(0.8333333333333334)" fill="none" stroke="#767676" stroke-width="1.8" stroke-linecap="round" stroke-linejoin="round"><path d="M4 6h16v14H4z M4 10h16 M8 3v4 M16 3v4"/></g><text x="56" y="180" font-family="Satoshi, -apple-system, 'Segoe UI', Roboto, Helvetica, Arial, sans-serif" font-size="14.5" font-weight="400" fill="#666666" text-anchor="start">Agenda</text><g transform="translate(24 212) scale(0.8333333333333334)" fill="none" stroke="#767676" stroke-width="1.8" stroke-linecap="round" stroke-linejoin="round"><circle cx="6" cy="6" r="2"/><circle cx="6" cy="18" r="2"/><path d="M8.5 7.5L20 18 M8.5 16.5L20 6"/></g><text x="56" y="226" font-family="Satoshi, -apple-system, 'Segoe UI', Roboto, Helvetica, Arial, sans-serif" font-size="14.5" font-weight="400" fill="#666666" text-anchor="start">Serviços</text><rect x="12" y="248" width="200" height="40" rx="10" fill="#f4f4f4" stroke="none" stroke-width="1" opacity="1"/><g transform="translate(24 258) scale(0.8333333333333334)" fill="none" stroke="#181818" stroke-width="1.8" stroke-linecap="round" stroke-linejoin="round"><path d="M12 3l8 4.5v9L12 21l-8-4.5v-9z M4 7.5l8 4.5 8-4.5 M12 12v9"/></g><text x="56" y="272" font-family="Satoshi, -apple-system, 'Segoe UI', Roboto, Helvetica, Arial, sans-serif" font-size="14.5" font-weight="500" fill="#181818" text-anchor="start">Estoque</text><g transform="translate(24 304) scale(0.8333333333333334)" fill="none" stroke="#767676" stroke-width="1.8" stroke-linecap="round" stroke-linejoin="round"><path d="M9 11a3.2 3.2 0 100-6.4 3.2 3.2 0 000 6.4 M3.5 20c0-3.2 2.5-5.2 5.5-5.2s5.5 2 5.5 5.2 M17 4.2a3 3 0 010 6 M21 20c0-2.6-1.5-4.5-3.6-5.1"/></g><text x="56" y="318" font-family="Satoshi, -apple-system, 'Segoe UI', Roboto, Helvetica, Arial, sans-serif" font-size="14.5" font-weight="400" fill="#666666" text-anchor="start">Clientes</text><g transform="translate(24 350) scale(0.8333333333333334)" fill="none" stroke="#767676" stroke-width="1.8" stroke-linecap="round" stroke-linejoin="round"><path d="M9 4.5h6v3H9z M8 6H5.5v15h13V6H16 M9 12h6 M9 16h4"/></g><text x="56" y="364" font-family="Satoshi, -apple-system, 'Segoe UI', Roboto, Helvetica, Arial, sans-serif" font-size="14.5" font-weight="400" fill="#666666" text-anchor="start">Histórico</text><g transform="translate(24 396) scale(0.8333333333333334)" fill="none" stroke="#767676" stroke-width="1.8" stroke-linecap="round" stroke-linejoin="round"><circle cx="16.5" cy="12.5" r="1.3" fill="#767676" stroke="none"/><path d="M3.5 7.5h15a1.5 1.5 0 011.5 1.5v8a1.5 1.5 0 01-1.5 1.5h-15V7.5z"/></g><text x="56" y="410" font-family="Satoshi, -apple-system, 'Segoe UI', Roboto, Helvetica, Arial, sans-serif" font-size="14.5" font-weight="400" fill="#666666" text-anchor="start">Fluxo de Caixa</text><rect x="0" y="810" width="224" height="1" rx="0" fill="#ebebeb" stroke="none" stroke-width="1" opacity="1"/><circle cx="36" cy="842" r="17" fill="#d9c2c6" stroke="none" stroke-width="1"/><text x="36" y="847" font-family="Satoshi, -apple-system, 'Segoe UI', Roboto, Helvetica, Arial, sans-serif" font-size="12" font-weight="600" fill="#181818" text-anchor="middle">MB</text><text x="62" y="838" font-family="Satoshi, -apple-system, 'Segoe UI', Roboto, Helvetica, Arial, sans-serif" font-size="13" font-weight="400" fill="#181818" text-anchor="start">Marina Braga</text><text x="62" y="856" font-family="Satoshi, -apple-system, 'Segoe UI', Roboto, Helvetica, Arial, sans-serif" font-size="11.5" font-weight="400" fill="#767676" text-anchor="start">marina@studio.com</text><rect x="224" y="40" width="1056" height="64" rx="0" fill="#f4f4f4" stroke="none" stroke-width="1" opacity="1"/><rect x="224" y="103" width="1056" height="1" rx="0" fill="#ebebeb" stroke="none" stroke-width="1" opacity="1"/><text x="252" y="80" font-family="Satoshi, -apple-system, 'Segoe UI', Roboto, Helvetica, Arial, sans-serif" font-size="22" font-weight="400" fill="#181818" text-anchor="start">Estoque</text><rect x="1092" y="58" width="160" height="36" rx="6" fill="#181818" stroke="none" stroke-width="1" opacity="1"/><g transform="translate(1106 67) scale(0.75)" fill="none" stroke="#fff" stroke-width="1.8" stroke-linecap="round" stroke-linejoin="round"><path d="M12 5v14 M5 12h14"/></g><text x="1130" y="81" font-family="Satoshi, -apple-system, 'Segoe UI', Roboto, Helvetica, Arial, sans-serif" font-size="14" font-weight="400" fill="#fff" text-anchor="start">Novo produto</text><g transform="translate(0 104)"><rect x="252" y="28" width="1000" height="52" rx="8" fill="#f6ecd9" stroke="none" stroke-width="1" opacity="1"/><circle cx="278" cy="54" r="5" fill="#c9923a" stroke="none" stroke-width="1"/><text x="296" y="59" font-family="Satoshi, -apple-system, 'Segoe UI', Roboto, Helvetica, Arial, sans-serif" font-size="13.5" font-weight="500" fill="#8a6320" text-anchor="start">3 itens abaixo do mínimo — lista de compras gerada automaticamente</text><rect x="252" y="100" width="1000" height="480" rx="8" fill="#ffffff" stroke="none" stroke-width="1" opacity="1"/><text x="318" y="130" font-family="Satoshi, -apple-system, 'Segoe UI', Roboto, Helvetica, Arial, sans-serif" font-size="12.5" font-weight="400" fill="#666666" text-anchor="start">Produto</text><text x="632" y="130" font-family="Satoshi, -apple-system, 'Segoe UI', Roboto, Helvetica, Arial, sans-serif" font-size="12.5" font-weight="400" fill="#666666" text-anchor="start">Categoria</text><text x="840" y="130" font-family="Satoshi, -apple-system, 'Segoe UI', Roboto, Helvetica, Arial, sans-serif" font-size="12.5" font-weight="400" fill="#666666" text-anchor="start">Em estoque</text><text x="988" y="130" font-family="Satoshi, -apple-system, 'Segoe UI', Roboto, Helvetica, Arial, sans-serif" font-size="12.5" font-weight="400" fill="#666666" text-anchor="start">Mínimo</text><text x="1098" y="130" font-family="Satoshi, -apple-system, 'Segoe UI', Roboto, Helvetica, Arial, sans-serif" font-size="12.5" font-weight="400" fill="#666666" text-anchor="start">Status</text><rect x="252" y="146" width="1000" height="1" rx="0" fill="#ebebeb" stroke="none" stroke-width="1" opacity="1"/><rect x="272" y="164" width="36" height="36" rx="8" fill="#f4f4f4" stroke="none" stroke-width="1" opacity="1"/><text x="318" y="187" font-family="Satoshi, -apple-system, 'Segoe UI', Roboto, Helvetica, Arial, sans-serif" font-size="13.5" font-weight="400" fill="#181818" text-anchor="start">Toxina botulínica 100U</text><rect x="632" y="173" width="88" height="22" rx="11" fill="#f7e9de" stroke="none" stroke-width="1" opacity="1"/><text x="640" y="188" font-family="Satoshi, -apple-system, 'Segoe UI', Roboto, Helvetica, Arial, sans-serif" font-size="12" font-weight="500" fill="#a35a35" text-anchor="start">Injetáveis</text><text x="840" y="187" font-family="Satoshi, -apple-system, 'Segoe UI', Roboto, Helvetica, Arial, sans-serif" font-size="13" font-weight="400" fill="#181818" text-anchor="start">2 un</text><text x="988" y="187" font-family="Satoshi, -apple-system, 'Segoe UI', Roboto, Helvetica, Arial, sans-serif" font-size="13" font-weight="400" fill="#666666" text-anchor="start">3 un</text><rect x="1098" y="173" width="52" height="22" rx="11" fill="#f6ecd9" stroke="none" stroke-width="1" opacity="1"/><text x="1106" y="188" font-family="Satoshi, -apple-system, 'Segoe UI', Roboto, Helvetica, Arial, sans-serif" font-size="12" font-weight="500" fill="#c9923a" text-anchor="start">Baixo</text><rect x="252" y="218" width="1000" height="1" rx="0" fill="#ebebeb" stroke="none" stroke-width="1" opacity="1"/><rect x="272" y="236" width="36" height="36" rx="8" fill="#f4f4f4" stroke="none" stroke-width="1" opacity="1"/><text x="318" y="259" font-family="Satoshi, -apple-system, 'Segoe UI', Roboto, Helvetica, Arial, sans-serif" font-size="13.5" font-weight="400" fill="#181818" text-anchor="start">Ácido hialurônico 1ml</text><rect x="632" y="245" width="88" height="22" rx="11" fill="#f7e9de" stroke="none" stroke-width="1" opacity="1"/><text x="640" y="260" font-family="Satoshi, -apple-system, 'Segoe UI', Roboto, Helvetica, Arial, sans-serif" font-size="12" font-weight="500" fill="#a35a35" text-anchor="start">Injetáveis</text><text x="840" y="259" font-family="Satoshi, -apple-system, 'Segoe UI', Roboto, Helvetica, Arial, sans-serif" font-size="13" font-weight="600" fill="#b85450" text-anchor="start">0 un</text><text x="988" y="259" font-family="Satoshi, -apple-system, 'Segoe UI', Roboto, Helvetica, Arial, sans-serif" font-size="13" font-weight="400" fill="#666666" text-anchor="start">2 un</text><rect x="1098" y="245" width="59.2" height="22" rx="11" fill="#f4e3e2" stroke="none" stroke-width="1" opacity="1"/><text x="1106" y="260" font-family="Satoshi, -apple-system, 'Segoe UI', Roboto, Helvetica, Arial, sans-serif" font-size="12" font-weight="500" fill="#b85450" text-anchor="start">Acabou</text><rect x="252" y="290" width="1000" height="1" rx="0" fill="#ebebeb" stroke="none" stroke-width="1" opacity="1"/><rect x="272" y="308" width="36" height="36" rx="8" fill="#f4f4f4" stroke="none" stroke-width="1" opacity="1"/><text x="318" y="331" font-family="Satoshi, -apple-system, 'Segoe UI', Roboto, Helvetica, Arial, sans-serif" font-size="13.5" font-weight="400" fill="#181818" text-anchor="start">Agulha 30G</text><rect x="632" y="317" width="102.4" height="22" rx="11" fill="#e3f1fc" stroke="none" stroke-width="1" opacity="1"/><text x="640" y="332" font-family="Satoshi, -apple-system, 'Segoe UI', Roboto, Helvetica, Arial, sans-serif" font-size="12" font-weight="500" fill="#2c6690" text-anchor="start">Descartáveis</text><text x="840" y="331" font-family="Satoshi, -apple-system, 'Segoe UI', Roboto, Helvetica, Arial, sans-serif" font-size="13" font-weight="400" fill="#181818" text-anchor="start">48 un</text><text x="988" y="331" font-family="Satoshi, -apple-system, 'Segoe UI', Roboto, Helvetica, Arial, sans-serif" font-size="13" font-weight="400" fill="#666666" text-anchor="start">20 un</text><rect x="1098" y="317" width="30.4" height="22" rx="11" fill="#e7efe9" stroke="none" stroke-width="1" opacity="1"/><text x="1106" y="332" font-family="Satoshi, -apple-system, 'Segoe UI', Roboto, Helvetica, Arial, sans-serif" font-size="12" font-weight="500" fill="#4a7c59" text-anchor="start">Ok</text><rect x="252" y="362" width="1000" height="1" rx="0" fill="#ebebeb" stroke="none" stroke-width="1" opacity="1"/><rect x="272" y="380" width="36" height="36" rx="8" fill="#f4f4f4" stroke="none" stroke-width="1" opacity="1"/><text x="318" y="403" font-family="Satoshi, -apple-system, 'Segoe UI', Roboto, Helvetica, Arial, sans-serif" font-size="13.5" font-weight="400" fill="#181818" text-anchor="start">Luva nitrílica M</text><rect x="632" y="389" width="102.4" height="22" rx="11" fill="#e3f1fc" stroke="none" stroke-width="1" opacity="1"/><text x="640" y="404" font-family="Satoshi, -apple-system, 'Segoe UI', Roboto, Helvetica, Arial, sans-serif" font-size="12" font-weight="500" fill="#2c6690" text-anchor="start">Descartáveis</text><text x="840" y="403" font-family="Satoshi, -apple-system, 'Segoe UI', Roboto, Helvetica, Arial, sans-serif" font-size="13" font-weight="400" fill="#181818" text-anchor="start">6 cx</text><text x="988" y="403" font-family="Satoshi, -apple-system, 'Segoe UI', Roboto, Helvetica, Arial, sans-serif" font-size="13" font-weight="400" fill="#666666" text-anchor="start">4 cx</text><rect x="1098" y="389" width="30.4" height="22" rx="11" fill="#e7efe9" stroke="none" stroke-width="1" opacity="1"/><text x="1106" y="404" font-family="Satoshi, -apple-system, 'Segoe UI', Roboto, Helvetica, Arial, sans-serif" font-size="12" font-weight="500" fill="#4a7c59" text-anchor="start">Ok</text><rect x="252" y="434" width="1000" height="1" rx="0" fill="#ebebeb" stroke="none" stroke-width="1" opacity="1"/><rect x="272" y="452" width="36" height="36" rx="8" fill="#f4f4f4" stroke="none" stroke-width="1" opacity="1"/><text x="318" y="475" font-family="Satoshi, -apple-system, 'Segoe UI', Roboto, Helvetica, Arial, sans-serif" font-size="13.5" font-weight="400" fill="#181818" text-anchor="start">Anestésico tópico</text><rect x="632" y="461" width="66.4" height="22" rx="11" fill="#f3e9e0" stroke="none" stroke-width="1" opacity="1"/><text x="640" y="476" font-family="Satoshi, -apple-system, 'Segoe UI', Roboto, Helvetica, Arial, sans-serif" font-size="12" font-weight="500" fill="#7a5f4a" text-anchor="start">Tópicos</text><text x="840" y="475" font-family="Satoshi, -apple-system, 'Segoe UI', Roboto, Helvetica, Arial, sans-serif" font-size="13" font-weight="400" fill="#181818" text-anchor="start">1 un</text><text x="988" y="475" font-family="Satoshi, -apple-system, 'Segoe UI', Roboto, Helvetica, Arial, sans-serif" font-size="13" font-weight="400" fill="#666666" text-anchor="start">2 un</text><rect x="1098" y="461" width="52" height="22" rx="11" fill="#f6ecd9" stroke="none" stroke-width="1" opacity="1"/><text x="1106" y="476" font-family="Satoshi, -apple-system, 'Segoe UI', Roboto, Helvetica, Arial, sans-serif" font-size="12" font-weight="500" fill="#c9923a" text-anchor="start">Baixo</text><rect x="252" y="506" width="1000" height="1" rx="0" fill="#ebebeb" stroke="none" stroke-width="1" opacity="1"/><rect x="272" y="524" width="36" height="36" rx="8" fill="#f4f4f4" stroke="none" stroke-width="1" opacity="1"/><text x="318" y="547" font-family="Satoshi, -apple-system, 'Segoe UI', Roboto, Helvetica, Arial, sans-serif" font-size="13.5" font-weight="400" fill="#181818" text-anchor="start">Máscara calmante</text><rect x="632" y="533" width="66.4" height="22" rx="11" fill="#f3e9e0" stroke="none" stroke-width="1" opacity="1"/><text x="640" y="548" font-family="Satoshi, -apple-system, 'Segoe UI', Roboto, Helvetica, Arial, sans-serif" font-size="12" font-weight="500" fill="#7a5f4a" text-anchor="start">Tópicos</text><text x="840" y="547" font-family="Satoshi, -apple-system, 'Segoe UI', Roboto, Helvetica, Arial, sans-serif" font-size="13" font-weight="400" fill="#181818" text-anchor="start">22 un</text><text x="988" y="547" font-family="Satoshi, -apple-system, 'Segoe UI', Roboto, Helvetica, Arial, sans-serif" font-size="13" font-weight="400" fill="#666666" text-anchor="start">10 un</text><rect x="1098" y="533" width="30.4" height="22" rx="11" fill="#e7efe9" stroke="none" stroke-width="1" opacity="1"/><text x="1106" y="548" font-family="Satoshi, -apple-system, 'Segoe UI', Roboto, Helvetica, Arial, sans-serif" font-size="12" font-weight="500" fill="#4a7c59" text-anchor="start">Ok</text><rect x="252" y="578" width="1000" height="1" rx="0" fill="#ebebeb" stroke="none" stroke-width="1" opacity="1"/></g></svg>