<svg xmlns="http://www.w3.org/2000/svg" viewBox="0 0 1280 880" width="1280" height="880" role="img"><rect x="0" y="0" width="1280" height="880" rx="0" fill="#f4f4f4" stroke="none" stroke-width="1" opacity="1"/><rect x="0" y="0" width="1280" height="880" rx="0" fill="#ffffff" stroke="none" stroke-width="1" opacity="1"/><rect x="0" y="0" width="1280" height="40" rx="0" fill="#ffffff" stroke="none" stroke-width="1" opacity="1"/><circle cx="24" cy="20" r="6" fill="#e5e0dd" stroke="none" stroke-width="1"/><circle cx="44" cy="20" r="6" fill="#e5e0dd" stroke="none" stroke-width="1"/><circle cx="64" cy="20" r="6" fill="#e5e0dd" stroke="none" stroke-width="1"/><rect x="0" y="39" width="1280" height="1" rx="0" fill="#ebebeb" stroke="none" stroke-width="1" opacity="1"/><rect x="0" y="40" width="224" height="840" rx="0" fill="#ffffff" stroke="none" stroke-width="1" opacity="1"/><rect x="223" y="40" width="1" height="840" rx="0" fill="#ebebeb" stroke="none" stroke-width="1" opacity="1"/><g transform="translate(24 53)"><path d="M12 2l1.8 6.2L20 10l-6.2 1.8L12 18l-1.8-6.2L4 10l6.2-1.8z" transform="scale(0.9)" fill="#b79ca0"/></g><text x="48" y="74" font-family="Satoshi, -apple-system, 'Segoe UI', Roboto, Helvetica, Arial, sans-serif" font-size="17" font-weight="300" fill="#181818" text-anchor="start">Harmon</text><text x="112" y="74" font-family="Satoshi, -apple-system, 'Segoe UI', Roboto, Helvetica, Arial, sans-serif" font-size="17" font-weight="600" fill="#181818" text-anchor="start">IA</text><g transform="translate(24 120) scale(0.8333333333333334)" fill="none" stroke="#767676" stroke-width="1.8" stroke-linecap="round" stroke-linejoin="round"><path d="M3 11l9-8 9 8 M5 10v10h5v-6h4v6h5V10"/></g><text x="56" y="134" font-family="Satoshi, -apple-system, 'Segoe UI', Roboto, Helvetica, Arial, sans-serif" font-size="14.5" font-weight="400" fill="#666666" text-anchor="start">Início</text><rect x="12" y="156" width="200" height="40" rx="10" fill="#f4f4f4" stroke="none" stroke-width="1" opacity="1"/><g transform="translate(24 166) scale(0.8333333333333334)" fill="none" stroke="#181818" stroke-width="1.8" stroke-linecap="round" stroke-linejoin="round"><path d="M4 6h16v14H4z M4 10h16 M8 3v4 M16 3v4"/></g><text x="56" y="180" font-family="Satoshi, -apple-system, 'Segoe UI', Roboto, Helvetica, Arial, sans-serif" font-size="14.5" font-weight="500" fill="#181818" text-anchor="start">Agenda</text><g transform="translate(24 212) scale(0.8333333333333334)" fill="none" stroke="#767676" stroke-width="1.8" stroke-linecap="round" stroke-linejoin="round"><circle cx="6" cy="6" r="2"/><circle cx="6" cy="18" r="2"/><path d="M8.5 7.5L20 18 M8.5 16.5L20 6"/></g><text x="56" y="226" font-family="Satoshi, -apple-system, 'Segoe UI', Roboto, Helvetica, Arial, sans-serif" font-size="14.5" font-weight="400" fill="#666666" text-anchor="start">Serviços</text><g transform="translate(24 258) scale(0.8333333333333334)" fill="none" stroke="#767676" stroke-width="1.8" stroke-linecap="round" stroke-linejoin="round"><path d="M12 3l8 4.5v9L12 21l-8-4.5v-9z M4 7.5l8 4.5 8-4.5 M12 12v9"/></g><text x="56" y="272" font-family="Satoshi, -apple-system, 'Segoe UI', Roboto, Helvetica, Arial, sans-serif" font-size="14.5" font-weight="400" fill="#666666" text-anchor="start">Estoque</text><g transform="translate(24 304) scale(0.8333333333333334)" fill="none" stroke="#767676" stroke-width="1.8" stroke-linecap="round" stroke-linejoin="round"><path d="M9 11a3.2 3.2 0 100-6.4 3.2 3.2 0 000 6.4 M3.5 20c0-3.2 2.5-5.2 5.5-5.2s5.5 2 5.5 5.2 M17 4.2a3 3 0 010 6 M21 20c0-2.6-1.5-4.5-3.6-5.1"/></g><text x="56" y="318" font-family="Satoshi, -apple-system, 'Segoe UI', Roboto, Helvetica, Arial, sans-serif" font-size="14.5" font-weight="400" fill="#666666" text-anchor="start">Clientes</text><g transform="translate(24 350) scale(0.8333333333333334)" fill="none" stroke="#767676" stroke-width="1.8" stroke-linecap="round" stroke-linejoin="round"><path d="M9 4.5h6v3H9z M8 6H5.5v15h13V6H16 M9 12h6 M9 16h4"/></g><text x="56" y="364" font-family="Satoshi, -apple-system, 'Segoe UI', Roboto, Helvetica, Arial, sans-serif" font-size="14.5" font-weight="400" fill="#666666" text-anchor="start">Histórico</text><g transform="translate(24 396) scale(0.8333333333333334)" fill="none" stroke="#767676" stroke-width="1.8" stroke-linecap="round" stroke-linejoin="round"><circle cx="16.5" cy="12.5" r="1.3" fill="#767676" stroke="none"/><path d="M3.5 7.5h15a1.5 1.5 0 011.5 1.5v8a1.5 1.5 0 01-1.5 1.5h-15V7.5z"/></g><text x="56" y="410" font-family="Satoshi, -apple-system, 'Segoe UI', Roboto, Helvetica, Arial, sans-serif" font-size="14.5" font-weight="400" fill="#666666" text-anchor="start">Fluxo de Caixa</text><rect x="0" y="810" width="224" height="1" rx="0" fill="#ebebeb" stroke="none" stroke-width="1" opacity="1"/><circle cx="36" cy="842" r="17" fill="#d9c2c6" stroke="none" stroke-width="1"/><text x="36" y="847" font-family="Satoshi, -apple-system, 'Segoe UI', Roboto, Helvetica, Arial, sans-serif" font-size="12" font-weight="600" fill="#181818" text-anchor="middle">MB</text><text x="62" y="838" font-family="Satoshi, -apple-system, 'Segoe UI', Roboto, Helvetica, Arial, sans-serif" font-size="13" font-weight="400" fill="#181818" text-anchor="start">Marina Braga</text><text x="62" y="856" font-family="Satoshi, -apple-system, 'Segoe UI', Roboto, Helvetica, Arial, sans-serif" font-size="11.5" font-weight="400" fill="#767676" text-anchor="start">marina@studio.com</text><rect x="224" y="40" width="1056" height="64" rx="0" fill="#f4f4f4" stroke="none" stroke-width="1" opacity="1"/><rect x="224" y="103" width="1056" height="1" rx="0" fill="#ebebeb" stroke="none" stroke-width="1" opacity="1"/><text x="252" y="80" font-family="Satoshi, -apple-system, 'Segoe UI', Roboto, Helvetica, Arial, sans-serif" font-size="22" font-weight="400" fill="#181818" text-anchor="start">Agenda</text><rect x="1056" y="58" width="196" height="36" rx="6" fill="#181818" stroke="none" stroke-width="1" opacity="1"/><g transform="translate(1070 67) scale(0.75)" fill="none" stroke="#fff" stroke-width="1.8" stroke-linecap="round" stroke-linejoin="round"><path d="M12 5v14 M5 12h14"/></g><text x="1094" y="81" font-family="Satoshi, -apple-system, 'Segoe UI', Roboto, Helvetica, Arial, sans-serif" font-size="14" font-weight="400" fill="#fff" text-anchor="start">Novo agendamento</text><g transform="translate(0 104)"><rect x="252" y="28" width="232" height="36" rx="18" fill="#f4f4f4" stroke="none" stroke-width="1" opacity="1"/><text x="285" y="51" font-family="Satoshi, -apple-system, 'Segoe UI', Roboto, Helvetica, Arial, sans-serif" font-size="13.5" font-weight="400" fill="#666666" text-anchor="middle">Dia</text><text x="361" y="51" font-family="Satoshi, -apple-system, 'Segoe UI', Roboto, Helvetica, Arial, sans-serif" font-size="13.5" font-weight="400" fill="#666666" text-anchor="middle">Semana</text><rect x="407" y="31" width="70" height="30" rx="15" fill="#ffffff" stroke="none" stroke-width="1" opacity="1"/><text x="442" y="51" font-family="Satoshi, -apple-system, 'Segoe UI', Roboto, Helvetica, Arial, sans-serif" font-size="13.5" font-weight="500" fill="#181818" text-anchor="middle">Mês</text><text x="1092" y="51" font-family="Satoshi, -apple-system, 'Segoe UI', Roboto, Helvetica, Arial, sans-serif" font-size="20" font-weight="400" fill="#666666" text-anchor="start">‹</text><text x="1134" y="51" font-family="Satoshi, -apple-system, 'Segoe UI', Roboto, Helvetica, Arial, sans-serif" font-size="14" font-weight="400" fill="#181818" text-anchor="middle">Julho 2026</text><text x="1232" y="51" font-family="Satoshi, -apple-system, 'Segoe UI', Roboto, Helvetica, Arial, sans-serif" font-size="20" font-weight="400" fill="#666666" text-anchor="end">›</text><rect x="252" y="84" width="1000" height="622" rx="8" fill="#ebebeb" stroke="none" stroke-width="1" opacity="1"/><text x="323.42857142857144" y="105" font-family="Satoshi, -apple-system, 'Segoe UI', Roboto, Helvetica, Arial, sans-serif" font-size="12" font-weight="400" fill="#666666" text-anchor="middle">Dom</text><text x="466.28571428571433" y="105" font-family="Satoshi, -apple-system, 'Segoe UI', Roboto, Helvetica, Arial, sans-serif" font-size="12" font-weight="400" fill="#666666" text-anchor="middle">Seg</text><text x="609.1428571428572" y="105" font-family="Satoshi, -apple-system, 'Segoe UI', Roboto, Helvetica, Arial, sans-serif" font-size="12" font-weight="400" fill="#666666" text-anchor="middle">Ter</text><text x="752" y="105" font-family="Satoshi, -apple-system, 'Segoe UI', Roboto, Helvetica, Arial, sans-serif" font-size="12" font-weight="400" fill="#666666" text-anchor="middle">Qua</text><text x="894.8571428571429" y="105" font-family="Satoshi, -apple-system, 'Segoe UI', Roboto, Helvetica, Arial, sans-serif" font-size="12" font-weight="400" fill="#666666" text-anchor="middle">Qui</text><text x="1037.7142857142858" y="105" font-family="Satoshi, -apple-system, 'Segoe UI', Roboto, Helvetica, Arial, sans-serif" font-size="12" font-weight="400" fill="#666666" text-anchor="middle">Sex</text><text x="1180.5714285714284" y="105" font-family="Satoshi, -apple-system, 'Segoe UI', Roboto, Helvetica, Arial, sans-serif" font-size="12" font-weight="400" fill="#666666" text-anchor="middle">Sáb</text><rect x="253" y="117" width="140.85714285714286" height="117" rx="0" fill="#f4f4f4" stroke="none" stroke-width="1" opacity="1"/><text x="263" y="139" font-family="Satoshi, -apple-system, 'Segoe UI', Roboto, Helvetica, Arial, sans-serif" font-size="12" font-weight="400" fill="#767676" text-anchor="start">29</text><rect x="395.8571428571429" y="117" width="140.85714285714286" height="117" rx="0" fill="#f4f4f4" stroke="none" stroke-width="1" opacity="1"/><text x="405.8571428571429" y="139" font-family="Satoshi, -apple-system, 'Segoe UI', Roboto, Helvetica, Arial, sans-serif" font-size="12" font-weight="400" fill="#767676" text-anchor="start">30</text><rect x="403.8571428571429" y="151" width="124.85714285714286" height="20" rx="5" fill="#f3e9ea" stroke="none" stroke-width="1" opacity="1"/><text x="409.8571428571429" y="165" font-family="Satoshi, -apple-system, 'Segoe UI', Roboto, Helvetica, Arial, sans-serif" font-size="11" font-weight="400" fill="#8f7276" text-anchor="start">09:00 Ana</text><rect x="538.7142857142858" y="117" width="140.85714285714286" height="117" rx="0" fill="#ffffff" stroke="none" stroke-width="1" opacity="1"/><text x="548.7142857142858" y="139" font-family="Satoshi, -apple-system, 'Segoe UI', Roboto, Helvetica, Arial, sans-serif" font-size="12" font-weight="400" fill="#666666" text-anchor="start">1</text><rect x="681.5714285714286" y="117" width="140.85714285714286" height="117" rx="0" fill="#ffffff" stroke="none" stroke-width="1" opacity="1"/><text x="691.5714285714286" y="139" font-family="Satoshi, -apple-system, 'Segoe UI', Roboto, Helvetica, Arial, sans-serif" font-size="12" font-weight="400" fill="#666666" text-anchor="start">2</text><rect x="689.5714285714286" y="151" width="124.85714285714286" height="20" rx="5" fill="#f3e9ea" stroke="none" stroke-width="1" opacity="1"/><text x="695.5714285714286" y="165" font-family="Satoshi, -apple-system, 'Segoe UI', Roboto, Helvetica, Arial, sans-serif" font-size="11" font-weight="400" fill="#8f7276" text-anchor="start">Bruna botox</text><text x="691.5714285714286" y="188" font-family="Satoshi, -apple-system, 'Segoe UI', Roboto, Helvetica, Arial, sans-serif" font-size="11" font-weight="400" fill="#666666" text-anchor="start">+2 mais</text><rect x="824.4285714285714" y="117" width="140.85714285714286" height="117" rx="0" fill="#ffffff" stroke="none" stroke-width="1" opacity="1"/><rect x="832.4285714285714" y="125" width="26" height="20" rx="10" fill="#d9c2c6" stroke="none" stroke-width="1" opacity="1"/><text x="845.4285714285714" y="139" font-family="Satoshi, -apple-system, 'Segoe UI', Roboto, Helvetica, Arial, sans-serif" font-size="12" font-weight="500" fill="#181818" text-anchor="middle">3</text><rect x="967.2857142857143" y="117" width="140.85714285714286" height="117" rx="0" fill="#ffffff" stroke="none" stroke-width="1" opacity="1"/><text x="977.2857142857143" y="139" font-family="Satoshi, -apple-system, 'Segoe UI', Roboto, Helvetica, Arial, sans-serif" font-size="12" font-weight="400" fill="#666666" text-anchor="start">4</text><rect x="1110.142857142857" y="117" width="140.85714285714286" height="117" rx="0" fill="#ffffff" stroke="none" stroke-width="1" opacity="1"/><text x="1120.142857142857" y="139" font-family="Satoshi, -apple-system, 'Segoe UI', Roboto, Helvetica, Arial, sans-serif" font-size="12" font-weight="400" fill="#666666" text-anchor="start">5</text><rect x="253" y="235" width="140.85714285714286" height="117" rx="0" fill="#ffffff" stroke="none" stroke-width="1" opacity="1"/><text x="263" y="257" font-family="Satoshi, -apple-system, 'Segoe UI', Roboto, Helvetica, Arial, sans-serif" font-size="12" font-weight="400" fill="#666666" text-anchor="start">6</text><rect x="395.8571428571429" y="235" width="140.85714285714286" height="117" rx="0" fill="#ffffff" stroke="none" stroke-width="1" opacity="1"/><text x="405.8571428571429" y="257" font-family="Satoshi, -apple-system, 'Segoe UI', Roboto, Helvetica, Arial, sans-serif" font-size="12" font-weight="400" fill="#666666" text-anchor="start">7</text><rect x="538.7142857142858" y="235" width="140.85714285714286" height="117" rx="0" fill="#ffffff" stroke="none" stroke-width="1" opacity="1"/><text x="548.7142857142858" y="257" font-family="Satoshi, -apple-system, 'Segoe UI', Roboto, Helvetica, Arial, sans-serif" font-size="12" font-weight="400" fill="#666666" text-anchor="start">8</text><rect x="546.7142857142858" y="269" width="124.85714285714286" height="20" rx="5" fill="#f3e9ea" stroke="none" stroke-width="1" opacity="1"/><text x="552.7142857142858" y="283" font-family="Satoshi, -apple-system, 'Segoe UI', Roboto, Helvetica, Arial, sans-serif" font-size="11" font-weight="400" fill="#8f7276" text-anchor="start">Carla</text><rect x="681.5714285714286" y="235" width="140.85714285714286" height="117" rx="0" fill="#ffffff" stroke="none" stroke-width="1" opacity="1"/><text x="691.5714285714286" y="257" font-family="Satoshi, -apple-system, 'Segoe UI', Roboto, Helvetica, Arial, sans-serif" font-size="12" font-weight="400" fill="#666666" text-anchor="start">9</text><rect x="824.4285714285714" y="235" width="140.85714285714286" height="117" rx="0" fill="#ffffff" stroke="none" stroke-width="1" opacity="1"/><text x="834.4285714285714" y="257" font-family="Satoshi, -apple-system, 'Segoe UI', Roboto, Helvetica, Arial, sans-serif" font-size="12" font-weight="400" fill="#666666" text-anchor="start">10</text><rect x="832.4285714285714" y="269" width="124.85714285714286" height="20" rx="5" fill="#f3e9ea" stroke="none" stroke-width="1" opacity="1"/><text x="838.4285714285714" y="283" font-family="Satoshi, -apple-system, 'Segoe UI', Roboto, Helvetica, Arial, sans-serif" font-size="11" font-weight="400" fill="#8f7276" text-anchor="start">Preenchim.</text><rect x="832.4285714285714" y="293" width="124.85714285714286" height="20" rx="5" fill="#e3f1fc" stroke="none" stroke-width="1" opacity="1"/><text x="838.4285714285714" y="307" font-family="Satoshi, -apple-system, 'Segoe UI', Roboto, Helvetica, Arial, sans-serif" font-size="11" font-weight="400" fill="#2c6690" text-anchor="start">Lash</text><rect x="967.2857142857143" y="235" width="140.85714285714286" height="117" rx="0" fill="#ffffff" stroke="none" stroke-width="1" opacity="1"/><text x="977.2857142857143" y="257" font-family="Satoshi, -apple-system, 'Segoe UI', Roboto, Helvetica, Arial, sans-serif" font-size="12" font-weight="400" fill="#666666" text-anchor="start">11</text><rect x="1110.142857142857" y="235" width="140.85714285714286" height="117" rx="0" fill="#ffffff" stroke="none" stroke-width="1" opacity="1"/><text x="1120.142857142857" y="257" font-family="Satoshi, -apple-system, 'Segoe UI', Roboto, Helvetica, Arial, sans-serif" font-size="12" font-weight="400" fill="#666666" text-anchor="start">12</text><rect x="253" y="353" width="140.85714285714286" height="117" rx="0" fill="#ffffff" stroke="none" stroke-width="1" opacity="1"/><text x="263" y="375" font-family="Satoshi, -apple-system, 'Segoe UI', Roboto, Helvetica, Arial, sans-serif" font-size="12" font-weight="400" fill="#666666" text-anchor="start">13</text><rect x="395.8571428571429" y="353" width="140.85714285714286" height="117" rx="0" fill="#ffffff" stroke="none" stroke-width="1" opacity="1"/><text x="405.8571428571429" y="375" font-family="Satoshi, -apple-system, 'Segoe UI', Roboto, Helvetica, Arial, sans-serif" font-size="12" font-weight="400" fill="#666666" text-anchor="start">14</text><rect x="403.8571428571429" y="387" width="124.85714285714286" height="20" rx="5" fill="#e3f1fc" stroke="none" stroke-width="1" opacity="1"/><text x="409.8571428571429" y="401" font-family="Satoshi, -apple-system, 'Segoe UI', Roboto, Helvetica, Arial, sans-serif" font-size="11" font-weight="400" fill="#2c6690" text-anchor="start">Diana</text><rect x="538.7142857142858" y="353" width="140.85714285714286" height="117" rx="0" fill="#ffffff" stroke="none" stroke-width="1" opacity="1"/><text x="548.7142857142858" y="375" font-family="Satoshi, -apple-system, 'Segoe UI', Roboto, Helvetica, Arial, sans-serif" font-size="12" font-weight="400" fill="#666666" text-anchor="start">15</text><rect x="681.5714285714286" y="353" width="140.85714285714286" height="117" rx="0" fill="#ffffff" stroke="none" stroke-width="1" opacity="1"/><text x="691.5714285714286" y="375" font-family="Satoshi, -apple-system, 'Segoe UI', Roboto, Helvetica, Arial, sans-serif" font-size="12" font-weight="400" fill="#666666" text-anchor="start">16</text><rect x="824.4285714285714" y="353" width="140.85714285714286" height="117" rx="0" fill="#ffffff" stroke="none" stroke-width="1" opacity="1"/><text x="834.4285714285714" y="375" font-family="Satoshi, -apple-system, 'Segoe UI', Roboto, Helvetica, Arial, sans-serif" font-size="12" font-weight="400" fill="#666666" text-anchor="start">17</text><rect x="967.2857142857143" y="353" width="140.85714285714286" height="117" rx="0" fill="#ffffff" stroke="none" stroke-width="1" opacity="1"/><text x="977.2857142857143" y="375" font-family="Satoshi, -apple-system, 'Segoe UI', Roboto, Helvetica, Arial, sans-serif" font-size="12" font-weight="400" fill="#666666" text-anchor="start">18</text><rect x="975.2857142857143" y="387" width="124.85714285714286" height="20" rx="5" fill="#f3e9ea" stroke="none" stroke-width="1" opacity="1"/><text x="981.2857142857143" y="401" font-family="Satoshi, -apple-system, 'Segoe UI', Roboto, Helvetica, Arial, sans-serif" font-size="11" font-weight="400" fill="#8f7276" text-anchor="start">Elis limpeza</text><rect x="1110.142857142857" y="353" width="140.85714285714286" height="117" rx="0" fill="#ffffff" stroke="none" stroke-width="1" opacity="1"/><text x="1120.142857142857" y="375" font-family="Satoshi, -apple-system, 'Segoe UI', Roboto, Helvetica, Arial, sans-serif" font-size="12" font-weight="400" fill="#666666" text-anchor="start">19</text><rect x="253" y="471" width="140.85714285714286" height="117" rx="0" fill="#ffffff" stroke="none" stroke-width="1" opacity="1"/><text x="263" y="493" font-family="Satoshi, -apple-system, 'Segoe UI', Roboto, Helvetica, Arial, sans-serif" font-size="12" font-weight="400" fill="#666666" text-anchor="start">20</text><rect x="395.8571428571429" y="471" width="140.85714285714286" height="117" rx="0" fill="#ffffff" stroke="none" stroke-width="1" opacity="1"/><text x="405.8571428571429" y="493" font-family="Satoshi, -apple-system, 'Segoe UI', Roboto, Helvetica, Arial, sans-serif" font-size="12" font-weight="400" fill="#666666" text-anchor="start">21</text><rect x="538.7142857142858" y="471" width="140.85714285714286" height="117" rx="0" fill="#ffffff" stroke="none" stroke-width="1" opacity="1"/><text x="548.7142857142858" y="493" font-family="Satoshi, -apple-system, 'Segoe UI', Roboto, Helvetica, Arial, sans-serif" font-size="12" font-weight="400" fill="#666666" text-anchor="start">22</text><rect x="681.5714285714286" y="471" width="140.85714285714286" height="117" rx="0" fill="#ffffff" stroke="none" stroke-width="1" opacity="1"/><text x="691.5714285714286" y="493" font-family="Satoshi, -apple-system, 'Segoe UI', Roboto, Helvetica, Arial, sans-serif" font-size="12" font-weight="400" fill="#666666" text-anchor="start">23</text><rect x="689.5714285714286" y="505" width="124.85714285714286" height="20" rx="5" fill="#f3e9ea" stroke="none" stroke-width="1" opacity="1"/><text x="695.5714285714286" y="519" font-family="Satoshi, -apple-system, 'Segoe UI', Roboto, Helvetica, Arial, sans-serif" font-size="11" font-weight="400" fill="#8f7276" text-anchor="start">Fernanda</text><text x="691.5714285714286" y="542" font-family="Satoshi, -apple-system, 'Segoe UI', Roboto, Helvetica, Arial, sans-serif" font-size="11" font-weight="400" fill="#666666" text-anchor="start">+3 mais</text><rect x="824.4285714285714" y="471" width="140.85714285714286" height="117" rx="0" fill="#ffffff" stroke="none" stroke-width="1" opacity="1"/><text x="834.4285714285714" y="493" font-family="Satoshi, -apple-system, 'Segoe UI', Roboto, Helvetica, Arial, sans-serif" font-size="12" font-weight="400" fill="#666666" text-anchor="start">24</text><rect x="967.2857142857143" y="471" width="140.85714285714286" height="117" rx="0" fill="#ffffff" stroke="none" stroke-width="1" opacity="1"/><text x="977.2857142857143" y="493" font-family="Satoshi, -apple-system, 'Segoe UI', Roboto, Helvetica, Arial, sans-serif" font-size="12" font-weight="400" fill="#666666" text-anchor="start">25</text><rect x="1110.142857142857" y="471" width="140.85714285714286" height="117" rx="0" fill="#ffffff" stroke="none" stroke-width="1" opacity="1"/><text x="1120.142857142857" y="493" font-family="Satoshi, -apple-system, 'Segoe UI', Roboto, Helvetica, Arial, sans-serif" font-size="12" font-weight="400" fill="#666666" text-anchor="start">26</text><rect x="1118.142857142857" y="505" width="124.85714285714286" height="20" rx="5" fill="#e3f1fc" stroke="none" stroke-width="1" opacity="1"/><text x="1124.142857142857" y="519" font-family="Satoshi, -apple-system, 'Segoe UI', Roboto, Helvetica, Arial, sans-serif" font-size="11" font-weight="400" fill="#2c6690" text-anchor="start">Retorno</text><rect x="253" y="589" width="140.85714285714286" height="117" rx="0" fill="#ffffff" stroke="none" stroke-width="1" opacity="1"/><text x="263" y="611" font-family="Satoshi, -apple-system, 'Segoe UI', Roboto, Helvetica, Arial, sans-serif" font-size="12" font-weight="400" fill="#666666" text-anchor="start">27</text><rect x="395.8571428571429" y="589" width="140.85714285714286" height="117" rx="0" fill="#ffffff" stroke="none" stroke-width="1" opacity="1"/><text x="405.8571428571429" y="611" font-family="Satoshi, -apple-system, 'Segoe UI', Roboto, Helvetica, Arial, sans-serif" font-size="12" font-weight="400" fill="#666666" text-anchor="start">28</text><rect x="538.7142857142858" y="589" width="140.85714285714286" height="117" rx="0" fill="#ffffff" stroke="none" stroke-width="1" opacity="1"/><text x="548.7142857142858" y="611" font-family="Satoshi, -apple-system, 'Segoe UI', Roboto, Helvetica, Arial, sans-serif" font-size="12" font-weight="400" fill="#666666" text-anchor="start">29</text><rect x="546.7142857142858" y="623" width="124.85714285714286" height="20" rx="5" fill="#f3e9ea" stroke="none" stroke-width="1" opacity="1"/><text x="552.7142857142858" y="637" font-family="Satoshi, -apple-system, 'Segoe UI', Roboto, Helvetica, Arial, sans-serif" font-size="11" font-weight="400" fill="#8f7276" text-anchor="start">Gabi</text><rect x="681.5714285714286" y="589" width="140.85714285714286" height="117" rx="0" fill="#ffffff" stroke="none" stroke-width="1" opacity="1"/><text x="691.5714285714286" y="611" font-family="Satoshi, -apple-system, 'Segoe UI', Roboto, Helvetica, Arial, sans-serif" font-size="12" font-weight="400" fill="#666666" text-anchor="start">30</text><rect x="824.4285714285714" y="589" width="140.85714285714286" height="117" rx="0" fill="#ffffff" stroke="none" stroke-width="1" opacity="1"/><text x="834.4285714285714" y="611" font-family="Satoshi, -apple-system, 'Segoe UI', Roboto, Helvetica, Arial, sans-serif" font-size="12" font-weight="400" fill="#666666" text-anchor="start">31</text><rect x="832.4285714285714" y="623" width="124.85714285714286" height="20" rx="5" fill="#f3e9ea" stroke="none" stroke-width="1" opacity="1"/><text x="838.4285714285714" y="637" font-family="Satoshi, -apple-system, 'Segoe UI', Roboto, Helvetica, Arial, sans-serif" font-size="11" font-weight="400" fill="#8f7276" text-anchor="start">Helo peel</text><rect x="967.2857142857143" y="589" width="140.85714285714286" height="117" rx="0" fill="#f4f4f4" stroke="none" stroke-width="1" opacity="1"/><text x="977.2857142857143" y="611" font-family="Satoshi, -apple-system, 'Segoe UI', Roboto, Helvetica, Arial, sans-serif" font-size="12" font-weight="400" fill="#767676" text-anchor="start">1</text><rect x="1110.142857142857" y="589" width="140.85714285714286" height="117" rx="0" fill="#f4f4f4" stroke="none" stroke-width="1" opacity="1"/><text x="1120.142857142857" y="611" font-family="Satoshi, -apple-system, 'Segoe UI', Roboto, Helvetica, Arial, sans-serif" font-size="12" font-weight="400" fill="#767676" text-anchor="start">2</text></g></svg>