<svg xmlns="http://www.w3.org/2000/svg" viewBox="0 0 1280 880" width="1280" height="880" role="img"><rect x="0" y="0" width="1280" height="880" rx="0" fill="#f4f4f4" stroke="none" stroke-width="1" opacity="1"/><rect x="0" y="0" width="1280" height="880" rx="0" fill="#ffffff" stroke="none" stroke-width="1" opacity="1"/><rect x="0" y="0" width="1280" height="40" rx="0" fill="#ffffff" stroke="none" stroke-width="1" opacity="1"/><circle cx="24" cy="20" r="6" fill="#e5e0dd" stroke="none" stroke-width="1"/><circle cx="44" cy="20" r="6" fill="#e5e0dd" stroke="none" stroke-width="1"/><circle cx="64" cy="20" r="6" fill="#e5e0dd" stroke="none" stroke-width="1"/><rect x="0" y="39" width="1280" height="1" rx="0" fill="#ebebeb" stroke="none" stroke-width="1" opacity="1"/><rect x="0" y="40" width="224" height="840" rx="0" fill="#ffffff" stroke="none" stroke-width="1" opacity="1"/><rect x="223" y="40" width="1" height="840" rx="0" fill="#ebebeb" stroke="none" stroke-width="1" opacity="1"/><g transform="translate(24 53)"><path d="M12 2l1.8 6.2L20 10l-6.2 1.8L12 18l-1.8-6.2L4 10l6.2-1.8z" transform="scale(0.9)" fill="#b79ca0"/></g><text x="48" y="74" font-family="Satoshi, -apple-system, 'Segoe UI', Roboto, Helvetica, Arial, sans-serif" font-size="17" font-weight="300" fill="#181818" text-anchor="start">Harmon</text><text x="112" y="74" font-family="Satoshi, -apple-system, 'Segoe UI', Roboto, Helvetica, Arial, sans-serif" font-size="17" font-weight="600" fill="#181818" text-anchor="start">IA</text><g transform="translate(24 120) scale(0.8333333333333334)" fill="none" stroke="#767676" stroke-width="1.8" stroke-linecap="round" stroke-linejoin="round"><path d="M3 11l9-8 9 8 M5 10v10h5v-6h4v6h5V10"/></g><text x="56" y="134" font-family="Satoshi, -apple-system, 'Segoe UI', Roboto, Helvetica, Arial, sans-serif" font-size="14.5" font-weight="400" fill="#666666" text-anchor="start">Início</text><g transform="translate(24 166) scale(0.8333333333333334)" fill="none" stroke="#767676" stroke-width="1.8" stroke-linecap="round" stroke-linejoin="round"><path d="M4 6h16v14H4z M4 10h16 M8 3v4 M16 3v4"/></g><text x="56" y="180" font-family="Satoshi, -apple-system, 'Segoe UI', Roboto, Helvetica, Arial, sans-serif" font-size="14.5" font-weight="400" fill="#666666" text-anchor="start">Agenda</text><g transform="translate(24 212) scale(0.8333333333333334)" fill="none" stroke="#767676" stroke-width="1.8" stroke-linecap="round" stroke-linejoin="round"><circle cx="6" cy="6" r="2"/><circle cx="6" cy="18" r="2"/><path d="M8.5 7.5L20 18 M8.5 16.5L20 6"/></g><text x="56" y="226" font-family="Satoshi, -apple-system, 'Segoe UI', Roboto, Helvetica, Arial, sans-serif" font-size="14.5" font-weight="400" fill="#666666" text-anchor="start">Serviços</text><g transform="translate(24 258) scale(0.8333333333333334)" fill="none" stroke="#767676" stroke-width="1.8" stroke-linecap="round" stroke-linejoin="round"><path d="M12 3l8 4.5v9L12 21l-8-4.5v-9z M4 7.5l8 4.5 8-4.5 M12 12v9"/></g><text x="56" y="272" font-family="Satoshi, -apple-system, 'Segoe UI', Roboto, Helvetica, Arial, sans-serif" font-size="14.5" font-weight="400" fill="#666666" text-anchor="start">Estoque</text><rect x="12" y="294" width="200" height="40" rx="10" fill="#f4f4f4" stroke="none" stroke-width="1" opacity="1"/><g transform="translate(24 304) scale(0.8333333333333334)" fill="none" stroke="#181818" stroke-width="1.8" stroke-linecap="round" stroke-linejoin="round"><path d="M9 11a3.2 3.2 0 100-6.4 3.2 3.2 0 000 6.4 M3.5 20c0-3.2 2.5-5.2 5.5-5.2s5.5 2 5.5 5.2 M17 4.2a3 3 0 010 6 M21 20c0-2.6-1.5-4.5-3.6-5.1"/></g><text x="56" y="318" font-family="Satoshi, -apple-system, 'Segoe UI', Roboto, Helvetica, Arial, sans-serif" font-size="14.5" font-weight="500" fill="#181818" text-anchor="start">Clientes</text><g transform="translate(24 350) scale(0.8333333333333334)" fill="none" stroke="#767676" stroke-width="1.8" stroke-linecap="round" stroke-linejoin="round"><path d="M9 4.5h6v3H9z M8 6H5.5v15h13V6H16 M9 12h6 M9 16h4"/></g><text x="56" y="364" font-family="Satoshi, -apple-system, 'Segoe UI', Roboto, Helvetica, Arial, sans-serif" font-size="14.5" font-weight="400" fill="#666666" text-anchor="start">Histórico</text><g transform="translate(24 396) scale(0.8333333333333334)" fill="none" stroke="#767676" stroke-width="1.8" stroke-linecap="round" stroke-linejoin="round"><circle cx="16.5" cy="12.5" r="1.3" fill="#767676" stroke="none"/><path d="M3.5 7.5h15a1.5 1.5 0 011.5 1.5v8a1.5 1.5 0 01-1.5 1.5h-15V7.5z"/></g><text x="56" y="410" font-family="Satoshi, -apple-system, 'Segoe UI', Roboto, Helvetica, Arial, sans-serif" font-size="14.5" font-weight="400" fill="#666666" text-anchor="start">Fluxo de Caixa</text><rect x="0" y="810" width="224" height="1" rx="0" fill="#ebebeb" stroke="none" stroke-width="1" opacity="1"/><circle cx="36" cy="842" r="17" fill="#d9c2c6" stroke="none" stroke-width="1"/><text x="36" y="847" font-family="Satoshi, -apple-system, 'Segoe UI', Roboto, Helvetica, Arial, sans-serif" font-size="12" font-weight="600" fill="#181818" text-anchor="middle">MB</text><text x="62" y="838" font-family="Satoshi, -apple-system, 'Segoe UI', Roboto, Helvetica, Arial, sans-serif" font-size="13" font-weight="400" fill="#181818" text-anchor="start">Marina Braga</text><text x="62" y="856" font-family="Satoshi, -apple-system, 'Segoe UI', Roboto, Helvetica, Arial, sans-serif" font-size="11.5" font-weight="400" fill="#767676" text-anchor="start">marina@studio.com</text><rect x="224" y="40" width="1056" height="64" rx="0" fill="#f4f4f4" stroke="none" stroke-width="1" opacity="1"/><rect x="224" y="103" width="1056" height="1" rx="0" fill="#ebebeb" stroke="none" stroke-width="1" opacity="1"/><text x="252" y="80" font-family="Satoshi, -apple-system, 'Segoe UI', Roboto, Helvetica, Arial, sans-serif" font-size="22" font-weight="400" fill="#181818" text-anchor="start">Clientes</text><rect x="1092" y="58" width="160" height="36" rx="6" fill="#181818" stroke="none" stroke-width="1" opacity="1"/><g transform="translate(1106 67) scale(0.75)" fill="none" stroke="#fff" stroke-width="1.8" stroke-linecap="round" stroke-linejoin="round"><path d="M12 5v14 M5 12h14"/></g><text x="1130" y="81" font-family="Satoshi, -apple-system, 'Segoe UI', Roboto, Helvetica, Arial, sans-serif" font-size="14" font-weight="400" fill="#fff" text-anchor="start">Novo cliente</text><g transform="translate(0 104)"><rect x="252" y="28" width="300" height="38" rx="6" fill="#ffffff" stroke="#ebebeb" stroke-width="1" opacity="1"/><g transform="translate(264 38) scale(0.75)" fill="none" stroke="#767676" stroke-width="1.8" stroke-linecap="round" stroke-linejoin="round"><path d="M11 11m-6 0a6 6 0 1012 0 6 6 0 10-12 0 M20 20l-3.2-3.2"/></g><text x="292" y="52" font-family="Satoshi, -apple-system, 'Segoe UI', Roboto, Helvetica, Arial, sans-serif" font-size="13.5" font-weight="400" fill="#767676" text-anchor="start">Buscar cliente…</text><rect x="252" y="86" width="1000" height="568" rx="8" fill="#ffffff" stroke="none" stroke-width="1" opacity="1"/><text x="314" y="116" font-family="Satoshi, -apple-system, 'Segoe UI', Roboto, Helvetica, Arial, sans-serif" font-size="12.5" font-weight="400" fill="#666666" text-anchor="start">Cliente</text><text x="608" y="116" font-family="Satoshi, -apple-system, 'Segoe UI', Roboto, Helvetica, Arial, sans-serif" font-size="12.5" font-weight="400" fill="#666666" text-anchor="start">Telefone</text><text x="812" y="116" font-family="Satoshi, -apple-system, 'Segoe UI', Roboto, Helvetica, Arial, sans-serif" font-size="12.5" font-weight="400" fill="#666666" text-anchor="start">Última visita</text><text x="1012" y="116" font-family="Satoshi, -apple-system, 'Segoe UI', Roboto, Helvetica, Arial, sans-serif" font-size="12.5" font-weight="400" fill="#666666" text-anchor="start">Retorno</text><rect x="252" y="132" width="1000" height="1" rx="0" fill="#ebebeb" stroke="none" stroke-width="1" opacity="1"/><circle cx="286" cy="169" r="17" fill="#d9c2c6" stroke="none" stroke-width="1"/><text x="286" y="174" font-family="Satoshi, -apple-system, 'Segoe UI', Roboto, Helvetica, Arial, sans-serif" font-size="12" font-weight="600" fill="#181818" text-anchor="middle">AP</text><text x="314" y="174" font-family="Satoshi, -apple-system, 'Segoe UI', Roboto, Helvetica, Arial, sans-serif" font-size="14" font-weight="400" fill="#181818" text-anchor="start">Ana Prado</text><g transform="translate(608 160) scale(0.7083333333333334)" fill="none" stroke="#4a7c59" stroke-width="1.8" stroke-linecap="round" stroke-linejoin="round"><path d="M12 3a8.6 8.6 0 00-7.4 13l-1 3.7 3.8-1a8.6 8.6 0 104.6-15.7z"/></g><text x="634" y="174" font-family="Satoshi, -apple-system, 'Segoe UI', Roboto, Helvetica, Arial, sans-serif" font-size="13" font-weight="400" fill="#4a7c59" text-anchor="start">(11) 99812-4477</text><text x="812" y="174" font-family="Satoshi, -apple-system, 'Segoe UI', Roboto, Helvetica, Arial, sans-serif" font-size="13" font-weight="400" fill="#666666" text-anchor="start">12 jun 2026</text><rect x="1012" y="160" width="59.2" height="22" rx="11" fill="#e7efe9" stroke="none" stroke-width="1" opacity="1"/><text x="1020" y="175" font-family="Satoshi, -apple-system, 'Segoe UI', Roboto, Helvetica, Arial, sans-serif" font-size="12" font-weight="500" fill="#4a7c59" text-anchor="start">Em dia</text><rect x="252" y="206" width="1000" height="1" rx="0" fill="#ebebeb" stroke="none" stroke-width="1" opacity="1"/><circle cx="286" cy="243" r="17" fill="#e3f1fc" stroke="none" stroke-width="1"/><text x="286" y="248" font-family="Satoshi, -apple-system, 'Segoe UI', Roboto, Helvetica, Arial, sans-serif" font-size="12" font-weight="600" fill="#181818" text-anchor="middle">BL</text><text x="314" y="248" font-family="Satoshi, -apple-system, 'Segoe UI', Roboto, Helvetica, Arial, sans-serif" font-size="14" font-weight="400" fill="#181818" text-anchor="start">Bruna Lima</text><g transform="translate(608 234) scale(0.7083333333333334)" fill="none" stroke="#4a7c59" stroke-width="1.8" stroke-linecap="round" stroke-linejoin="round"><path d="M12 3a8.6 8.6 0 00-7.4 13l-1 3.7 3.8-1a8.6 8.6 0 104.6-15.7z"/></g><text x="634" y="248" font-family="Satoshi, -apple-system, 'Segoe UI', Roboto, Helvetica, Arial, sans-serif" font-size="13" font-weight="400" fill="#4a7c59" text-anchor="start">(11) 99745-1180</text><text x="812" y="248" font-family="Satoshi, -apple-system, 'Segoe UI', Roboto, Helvetica, Arial, sans-serif" font-size="13" font-weight="400" fill="#666666" text-anchor="start">28 jun 2026</text><rect x="1012" y="234" width="102.4" height="22" rx="11" fill="#f6ecd9" stroke="none" stroke-width="1" opacity="1"/><text x="1020" y="249" font-family="Satoshi, -apple-system, 'Segoe UI', Roboto, Helvetica, Arial, sans-serif" font-size="12" font-weight="500" fill="#c9923a" text-anchor="start">Retorno hoje</text><rect x="252" y="280" width="1000" height="1" rx="0" fill="#ebebeb" stroke="none" stroke-width="1" opacity="1"/><circle cx="286" cy="317" r="17" fill="#f7e9de" stroke="none" stroke-width="1"/><text x="286" y="322" font-family="Satoshi, -apple-system, 'Segoe UI', Roboto, Helvetica, Arial, sans-serif" font-size="12" font-weight="600" fill="#181818" text-anchor="middle">CS</text><text x="314" y="322" font-family="Satoshi, -apple-system, 'Segoe UI', Roboto, Helvetica, Arial, sans-serif" font-size="14" font-weight="400" fill="#181818" text-anchor="start">Carla Souza</text><g transform="translate(608 308) scale(0.7083333333333334)" fill="none" stroke="#4a7c59" stroke-width="1.8" stroke-linecap="round" stroke-linejoin="round"><path d="M12 3a8.6 8.6 0 00-7.4 13l-1 3.7 3.8-1a8.6 8.6 0 104.6-15.7z"/></g><text x="634" y="322" font-family="Satoshi, -apple-system, 'Segoe UI', Roboto, Helvetica, Arial, sans-serif" font-size="13" font-weight="400" fill="#4a7c59" text-anchor="start">(11) 99610-3321</text><text x="812" y="322" font-family="Satoshi, -apple-system, 'Segoe UI', Roboto, Helvetica, Arial, sans-serif" font-size="13" font-weight="400" fill="#666666" text-anchor="start">02 jul 2026</text><rect x="1012" y="308" width="59.2" height="22" rx="11" fill="#e7efe9" stroke="none" stroke-width="1" opacity="1"/><text x="1020" y="323" font-family="Satoshi, -apple-system, 'Segoe UI', Roboto, Helvetica, Arial, sans-serif" font-size="12" font-weight="500" fill="#4a7c59" text-anchor="start">Em dia</text><rect x="252" y="354" width="1000" height="1" rx="0" fill="#ebebeb" stroke="none" stroke-width="1" opacity="1"/><circle cx="286" cy="391" r="17" fill="#f3e9ea" stroke="none" stroke-width="1"/><text x="286" y="396" font-family="Satoshi, -apple-system, 'Segoe UI', Roboto, Helvetica, Arial, sans-serif" font-size="12" font-weight="600" fill="#181818" text-anchor="middle">DR</text><text x="314" y="396" font-family="Satoshi, -apple-system, 'Segoe UI', Roboto, Helvetica, Arial, sans-serif" font-size="14" font-weight="400" fill="#181818" text-anchor="start">Diana Reis</text><g transform="translate(608 382) scale(0.7083333333333334)" fill="none" stroke="#4a7c59" stroke-width="1.8" stroke-linecap="round" stroke-linejoin="round"><path d="M12 3a8.6 8.6 0 00-7.4 13l-1 3.7 3.8-1a8.6 8.6 0 104.6-15.7z"/></g><text x="634" y="396" font-family="Satoshi, -apple-system, 'Segoe UI', Roboto, Helvetica, Arial, sans-serif" font-size="13" font-weight="400" fill="#4a7c59" text-anchor="start">(11) 99988-7654</text><text x="812" y="396" font-family="Satoshi, -apple-system, 'Segoe UI', Roboto, Helvetica, Arial, sans-serif" font-size="13" font-weight="400" fill="#666666" text-anchor="start">19 mai 2026</text><rect x="1012" y="382" width="73.6" height="22" rx="11" fill="#f4e3e2" stroke="none" stroke-width="1" opacity="1"/><text x="1020" y="397" font-family="Satoshi, -apple-system, 'Segoe UI', Roboto, Helvetica, Arial, sans-serif" font-size="12" font-weight="500" fill="#b85450" text-anchor="start">Atrasado</text><rect x="252" y="428" width="1000" height="1" rx="0" fill="#ebebeb" stroke="none" stroke-width="1" opacity="1"/><circle cx="286" cy="465" r="17" fill="#f3e9e0" stroke="none" stroke-width="1"/><text x="286" y="470" font-family="Satoshi, -apple-system, 'Segoe UI', Roboto, Helvetica, Arial, sans-serif" font-size="12" font-weight="600" fill="#181818" text-anchor="middle">EM</text><text x="314" y="470" font-family="Satoshi, -apple-system, 'Segoe UI', Roboto, Helvetica, Arial, sans-serif" font-size="14" font-weight="400" fill="#181818" text-anchor="start">Elis Moura</text><g transform="translate(608 456) scale(0.7083333333333334)" fill="none" stroke="#4a7c59" stroke-width="1.8" stroke-linecap="round" stroke-linejoin="round"><path d="M12 3a8.6 8.6 0 00-7.4 13l-1 3.7 3.8-1a8.6 8.6 0 104.6-15.7z"/></g><text x="634" y="470" font-family="Satoshi, -apple-system, 'Segoe UI', Roboto, Helvetica, Arial, sans-serif" font-size="13" font-weight="400" fill="#4a7c59" text-anchor="start">(11) 99502-9080</text><text x="812" y="470" font-family="Satoshi, -apple-system, 'Segoe UI', Roboto, Helvetica, Arial, sans-serif" font-size="13" font-weight="400" fill="#666666" text-anchor="start">30 jun 2026</text><rect x="1012" y="456" width="59.2" height="22" rx="11" fill="#e7efe9" stroke="none" stroke-width="1" opacity="1"/><text x="1020" y="471" font-family="Satoshi, -apple-system, 'Segoe UI', Roboto, Helvetica, Arial, sans-serif" font-size="12" font-weight="500" fill="#4a7c59" text-anchor="start">Em dia</text><rect x="252" y="502" width="1000" height="1" rx="0" fill="#ebebeb" stroke="none" stroke-width="1" opacity="1"/><circle cx="286" cy="539" r="17" fill="#d9c2c6" stroke="none" stroke-width="1"/><text x="286" y="544" font-family="Satoshi, -apple-system, 'Segoe UI', Roboto, Helvetica, Arial, sans-serif" font-size="12" font-weight="600" fill="#181818" text-anchor="middle">FA</text><text x="314" y="544" font-family="Satoshi, -apple-system, 'Segoe UI', Roboto, Helvetica, Arial, sans-serif" font-size="14" font-weight="400" fill="#181818" text-anchor="start">Fernanda Aoki</text><g transform="translate(608 530) scale(0.7083333333333334)" fill="none" stroke="#4a7c59" stroke-width="1.8" stroke-linecap="round" stroke-linejoin="round"><path d="M12 3a8.6 8.6 0 00-7.4 13l-1 3.7 3.8-1a8.6 8.6 0 104.6-15.7z"/></g><text x="634" y="544" font-family="Satoshi, -apple-system, 'Segoe UI', Roboto, Helvetica, Arial, sans-serif" font-size="13" font-weight="400" fill="#4a7c59" text-anchor="start">(11) 99123-4567</text><text x="812" y="544" font-family="Satoshi, -apple-system, 'Segoe UI', Roboto, Helvetica, Arial, sans-serif" font-size="13" font-weight="400" fill="#666666" text-anchor="start">01 jul 2026</text><rect x="1012" y="530" width="116.8" height="22" rx="11" fill="#f6ecd9" stroke="none" stroke-width="1" opacity="1"/><text x="1020" y="545" font-family="Satoshi, -apple-system, 'Segoe UI', Roboto, Helvetica, Arial, sans-serif" font-size="12" font-weight="500" fill="#c9923a" text-anchor="start">Retorno 15/jul</text><rect x="252" y="576" width="1000" height="1" rx="0" fill="#ebebeb" stroke="none" stroke-width="1" opacity="1"/><circle cx="286" cy="613" r="17" fill="#e3f1fc" stroke="none" stroke-width="1"/><text x="286" y="618" font-family="Satoshi, -apple-system, 'Segoe UI', Roboto, Helvetica, Arial, sans-serif" font-size="12" font-weight="600" fill="#181818" text-anchor="middle">GN</text><text x="314" y="618" font-family="Satoshi, -apple-system, 'Segoe UI', Roboto, Helvetica, Arial, sans-serif" font-size="14" font-weight="400" fill="#181818" text-anchor="start">Gabi Nunes</text><g transform="translate(608 604) scale(0.7083333333333334)" fill="none" stroke="#4a7c59" stroke-width="1.8" stroke-linecap="round" stroke-linejoin="round"><path d="M12 3a8.6 8.6 0 00-7.4 13l-1 3.7 3.8-1a8.6 8.6 0 104.6-15.7z"/></g><text x="634" y="618" font-family="Satoshi, -apple-system, 'Segoe UI', Roboto, Helvetica, Arial, sans-serif" font-size="13" font-weight="400" fill="#4a7c59" text-anchor="start">(11) 99456-7788</text><text x="812" y="618" font-family="Satoshi, -apple-system, 'Segoe UI', Roboto, Helvetica, Arial, sans-serif" font-size="13" font-weight="400" fill="#666666" text-anchor="start">24 jun 2026</text><rect x="1012" y="604" width="59.2" height="22" rx="11" fill="#e7efe9" stroke="none" stroke-width="1" opacity="1"/><text x="1020" y="619" font-family="Satoshi, -apple-system, 'Segoe UI', Roboto, Helvetica, Arial, sans-serif" font-size="12" font-weight="500" fill="#4a7c59" text-anchor="start">Em dia</text><rect x="252" y="650" width="1000" height="1" rx="0" fill="#ebebeb" stroke="none" stroke-width="1" opacity="1"/></g></svg>