<svg xmlns="http://www.w3.org/2000/svg" viewBox="0 0 1280 880" width="1280" height="880" role="img"><rect x="0" y="0" width="1280" height="880" rx="0" fill="#f4f4f4" stroke="none" stroke-width="1" opacity="1"/><rect x="0" y="0" width="1280" height="880" rx="0" fill="#ffffff" stroke="none" stroke-width="1" opacity="1"/><rect x="0" y="0" width="1280" height="40" rx="0" fill="#ffffff" stroke="none" stroke-width="1" opacity="1"/><circle cx="24" cy="20" r="6" fill="#e5e0dd" stroke="none" stroke-width="1"/><circle cx="44" cy="20" r="6" fill="#e5e0dd" stroke="none" stroke-width="1"/><circle cx="64" cy="20" r="6" fill="#e5e0dd" stroke="none" stroke-width="1"/><rect x="0" y="39" width="1280" height="1" rx="0" fill="#ebebeb" stroke="none" stroke-width="1" opacity="1"/><rect x="0" y="40" width="224" height="840" rx="0" fill="#ffffff" stroke="none" stroke-width="1" opacity="1"/><rect x="223" y="40" width="1" height="840" rx="0" fill="#ebebeb" stroke="none" stroke-width="1" opacity="1"/><g transform="translate(24 53)"><path d="M12 2l1.8 6.2L20 10l-6.2 1.8L12 18l-1.8-6.2L4 10l6.2-1.8z" transform="scale(0.9)" fill="#b79ca0"/></g><text x="48" y="74" font-family="Satoshi, -apple-system, 'Segoe UI', Roboto, Helvetica, Arial, sans-serif" font-size="17" font-weight="300" fill="#181818" text-anchor="start">Harmon</text><text x="112" y="74" font-family="Satoshi, -apple-system, 'Segoe UI', Roboto, Helvetica, Arial, sans-serif" font-size="17" font-weight="600" fill="#181818" text-anchor="start">IA</text><g transform="translate(24 120) scale(0.8333333333333334)" fill="none" stroke="#767676" stroke-width="1.8" stroke-linecap="round" stroke-linejoin="round"><path d="M3 11l9-8 9 8 M5 10v10h5v-6h4v6h5V10"/></g><text x="56" y="134" font-family="Satoshi, -apple-system, 'Segoe UI', Roboto, Helvetica, Arial, sans-serif" font-size="14.5" font-weight="400" fill="#666666" text-anchor="start">Início</text><g transform="translate(24 166) scale(0.8333333333333334)" fill="none" stroke="#767676" stroke-width="1.8" stroke-linecap="round" stroke-linejoin="round"><path d="M4 6h16v14H4z M4 10h16 M8 3v4 M16 3v4"/></g><text x="56" y="180" font-family="Satoshi, -apple-system, 'Segoe UI', Roboto, Helvetica, Arial, sans-serif" font-size="14.5" font-weight="400" fill="#666666" text-anchor="start">Agenda</text><rect x="12" y="202" width="200" height="40" rx="10" fill="#f4f4f4" stroke="none" stroke-width="1" opacity="1"/><g transform="translate(24 212) scale(0.8333333333333334)" fill="none" stroke="#181818" stroke-width="1.8" stroke-linecap="round" stroke-linejoin="round"><circle cx="6" cy="6" r="2"/><circle cx="6" cy="18" r="2"/><path d="M8.5 7.5L20 18 M8.5 16.5L20 6"/></g><text x="56" y="226" font-family="Satoshi, -apple-system, 'Segoe UI', Roboto, Helvetica, Arial, sans-serif" font-size="14.5" font-weight="500" fill="#181818" text-anchor="start">Serviços</text><g transform="translate(24 258) scale(0.8333333333333334)" fill="none" stroke="#767676" stroke-width="1.8" stroke-linecap="round" stroke-linejoin="round"><path d="M12 3l8 4.5v9L12 21l-8-4.5v-9z M4 7.5l8 4.5 8-4.5 M12 12v9"/></g><text x="56" y="272" font-family="Satoshi, -apple-system, 'Segoe UI', Roboto, Helvetica, Arial, sans-serif" font-size="14.5" font-weight="400" fill="#666666" text-anchor="start">Estoque</text><g transform="translate(24 304) scale(0.8333333333333334)" fill="none" stroke="#767676" stroke-width="1.8" stroke-linecap="round" stroke-linejoin="round"><path d="M9 11a3.2 3.2 0 100-6.4 3.2 3.2 0 000 6.4 M3.5 20c0-3.2 2.5-5.2 5.5-5.2s5.5 2 5.5 5.2 M17 4.2a3 3 0 010 6 M21 20c0-2.6-1.5-4.5-3.6-5.1"/></g><text x="56" y="318" font-family="Satoshi, -apple-system, 'Segoe UI', Roboto, Helvetica, Arial, sans-serif" font-size="14.5" font-weight="400" fill="#666666" text-anchor="start">Clientes</text><g transform="translate(24 350) scale(0.8333333333333334)" fill="none" stroke="#767676" stroke-width="1.8" stroke-linecap="round" stroke-linejoin="round"><path d="M9 4.5h6v3H9z M8 6H5.5v15h13V6H16 M9 12h6 M9 16h4"/></g><text x="56" y="364" font-family="Satoshi, -apple-system, 'Segoe UI', Roboto, Helvetica, Arial, sans-serif" font-size="14.5" font-weight="400" fill="#666666" text-anchor="start">Histórico</text><g transform="translate(24 396) scale(0.8333333333333334)" fill="none" stroke="#767676" stroke-width="1.8" stroke-linecap="round" stroke-linejoin="round"><circle cx="16.5" cy="12.5" r="1.3" fill="#767676" stroke="none"/><path d="M3.5 7.5h15a1.5 1.5 0 011.5 1.5v8a1.5 1.5 0 01-1.5 1.5h-15V7.5z"/></g><text x="56" y="410" font-family="Satoshi, -apple-system, 'Segoe UI', Roboto, Helvetica, Arial, sans-serif" font-size="14.5" font-weight="400" fill="#666666" text-anchor="start">Fluxo de Caixa</text><rect x="0" y="810" width="224" height="1" rx="0" fill="#ebebeb" stroke="none" stroke-width="1" opacity="1"/><circle cx="36" cy="842" r="17" fill="#d9c2c6" stroke="none" stroke-width="1"/><text x="36" y="847" font-family="Satoshi, -apple-system, 'Segoe UI', Roboto, Helvetica, Arial, sans-serif" font-size="12" font-weight="600" fill="#181818" text-anchor="middle">MB</text><text x="62" y="838" font-family="Satoshi, -apple-system, 'Segoe UI', Roboto, Helvetica, Arial, sans-serif" font-size="13" font-weight="400" fill="#181818" text-anchor="start">Marina Braga</text><text x="62" y="856" font-family="Satoshi, -apple-system, 'Segoe UI', Roboto, Helvetica, Arial, sans-serif" font-size="11.5" font-weight="400" fill="#767676" text-anchor="start">marina@studio.com</text><rect x="224" y="40" width="1056" height="64" rx="0" fill="#f4f4f4" stroke="none" stroke-width="1" opacity="1"/><rect x="224" y="103" width="1056" height="1" rx="0" fill="#ebebeb" stroke="none" stroke-width="1" opacity="1"/><text x="252" y="80" font-family="Satoshi, -apple-system, 'Segoe UI', Roboto, Helvetica, Arial, sans-serif" font-size="22" font-weight="400" fill="#181818" text-anchor="start">Serviços</text><rect x="1092" y="58" width="160" height="36" rx="6" fill="#181818" stroke="none" stroke-width="1" opacity="1"/><g transform="translate(1106 67) scale(0.75)" fill="none" stroke="#fff" stroke-width="1.8" stroke-linecap="round" stroke-linejoin="round"><path d="M12 5v14 M5 12h14"/></g><text x="1130" y="81" font-family="Satoshi, -apple-system, 'Segoe UI', Roboto, Helvetica, Arial, sans-serif" font-size="14" font-weight="400" fill="#fff" text-anchor="start">Novo serviço</text><g transform="translate(0 104)"><rect x="252" y="28" width="492" height="134" rx="8" fill="#ffffff" stroke="none" stroke-width="1" opacity="1"/><text x="274" y="68" font-family="Satoshi, -apple-system, 'Segoe UI', Roboto, Helvetica, Arial, sans-serif" font-size="15.5" font-weight="500" fill="#181818" text-anchor="start">Botox — Testa</text><rect x="274" y="81" width="88" height="22" rx="11" fill="#f7e9de" stroke="none" stroke-width="1" opacity="1"/><text x="282" y="96" font-family="Satoshi, -apple-system, 'Segoe UI', Roboto, Helvetica, Arial, sans-serif" font-size="12" font-weight="500" fill="#a35a35" text-anchor="start">Injetáveis</text><g transform="translate(624 82) scale(0.625)" fill="none" stroke="#767676" stroke-width="1.8" stroke-linecap="round" stroke-linejoin="round"><path d="M4 6h16v14H4z M4 10h16 M8 3v4 M16 3v4"/></g><text x="646" y="94" font-family="Satoshi, -apple-system, 'Segoe UI', Roboto, Helvetica, Arial, sans-serif" font-size="12.5" font-weight="400" fill="#666666" text-anchor="start">40 min</text><rect x="274" y="116" width="448" height="1" rx="0" fill="#ebebeb" stroke="none" stroke-width="1" opacity="1"/><text x="274" y="142" font-family="Satoshi, -apple-system, 'Segoe UI', Roboto, Helvetica, Arial, sans-serif" font-size="13" font-weight="400" fill="#181818" text-anchor="start">Preço R$ 900</text><text x="722" y="142" font-family="Satoshi, -apple-system, 'Segoe UI', Roboto, Helvetica, Arial, sans-serif" font-size="13" font-weight="500" fill="#4a7c59" text-anchor="end">Lucro R$ 690</text><rect x="760" y="28" width="492" height="134" rx="8" fill="#ffffff" stroke="none" stroke-width="1" opacity="1"/><text x="782" y="68" font-family="Satoshi, -apple-system, 'Segoe UI', Roboto, Helvetica, Arial, sans-serif" font-size="15.5" font-weight="500" fill="#181818" text-anchor="start">Preenchimento labial</text><rect x="782" y="81" width="88" height="22" rx="11" fill="#f7e9de" stroke="none" stroke-width="1" opacity="1"/><text x="790" y="96" font-family="Satoshi, -apple-system, 'Segoe UI', Roboto, Helvetica, Arial, sans-serif" font-size="12" font-weight="500" fill="#a35a35" text-anchor="start">Injetáveis</text><g transform="translate(1132 82) scale(0.625)" fill="none" stroke="#767676" stroke-width="1.8" stroke-linecap="round" stroke-linejoin="round"><path d="M4 6h16v14H4z M4 10h16 M8 3v4 M16 3v4"/></g><text x="1154" y="94" font-family="Satoshi, -apple-system, 'Segoe UI', Roboto, Helvetica, Arial, sans-serif" font-size="12.5" font-weight="400" fill="#666666" text-anchor="start">50 min</text><rect x="782" y="116" width="448" height="1" rx="0" fill="#ebebeb" stroke="none" stroke-width="1" opacity="1"/><text x="782" y="142" font-family="Satoshi, -apple-system, 'Segoe UI', Roboto, Helvetica, Arial, sans-serif" font-size="13" font-weight="400" fill="#181818" text-anchor="start">Preço R$ 1.200</text><text x="1230" y="142" font-family="Satoshi, -apple-system, 'Segoe UI', Roboto, Helvetica, Arial, sans-serif" font-size="13" font-weight="500" fill="#4a7c59" text-anchor="end">Lucro R$ 820</text><rect x="252" y="178" width="492" height="134" rx="8" fill="#ffffff" stroke="none" stroke-width="1" opacity="1"/><text x="274" y="218" font-family="Satoshi, -apple-system, 'Segoe UI', Roboto, Helvetica, Arial, sans-serif" font-size="15.5" font-weight="500" fill="#181818" text-anchor="start">Limpeza de pele</text><rect x="274" y="231" width="59.2" height="22" rx="11" fill="#f3e9e0" stroke="none" stroke-width="1" opacity="1"/><text x="282" y="246" font-family="Satoshi, -apple-system, 'Segoe UI', Roboto, Helvetica, Arial, sans-serif" font-size="12" font-weight="500" fill="#7a5f4a" text-anchor="start">Facial</text><g transform="translate(624 232) scale(0.625)" fill="none" stroke="#767676" stroke-width="1.8" stroke-linecap="round" stroke-linejoin="round"><path d="M4 6h16v14H4z M4 10h16 M8 3v4 M16 3v4"/></g><text x="646" y="244" font-family="Satoshi, -apple-system, 'Segoe UI', Roboto, Helvetica, Arial, sans-serif" font-size="12.5" font-weight="400" fill="#666666" text-anchor="start">60 min</text><rect x="274" y="266" width="448" height="1" rx="0" fill="#ebebeb" stroke="none" stroke-width="1" opacity="1"/><text x="274" y="292" font-family="Satoshi, -apple-system, 'Segoe UI', Roboto, Helvetica, Arial, sans-serif" font-size="13" font-weight="400" fill="#181818" text-anchor="start">Preço R$ 220</text><text x="722" y="292" font-family="Satoshi, -apple-system, 'Segoe UI', Roboto, Helvetica, Arial, sans-serif" font-size="13" font-weight="500" fill="#4a7c59" text-anchor="end">Lucro R$ 175</text><rect x="760" y="178" width="492" height="134" rx="8" fill="#ffffff" stroke="none" stroke-width="1" opacity="1"/><text x="782" y="218" font-family="Satoshi, -apple-system, 'Segoe UI', Roboto, Helvetica, Arial, sans-serif" font-size="15.5" font-weight="500" fill="#181818" text-anchor="start">Peeling químico</text><rect x="782" y="231" width="59.2" height="22" rx="11" fill="#f3e9e0" stroke="none" stroke-width="1" opacity="1"/><text x="790" y="246" font-family="Satoshi, -apple-system, 'Segoe UI', Roboto, Helvetica, Arial, sans-serif" font-size="12" font-weight="500" fill="#7a5f4a" text-anchor="start">Facial</text><g transform="translate(1132 232) scale(0.625)" fill="none" stroke="#767676" stroke-width="1.8" stroke-linecap="round" stroke-linejoin="round"><path d="M4 6h16v14H4z M4 10h16 M8 3v4 M16 3v4"/></g><text x="1154" y="244" font-family="Satoshi, -apple-system, 'Segoe UI', Roboto, Helvetica, Arial, sans-serif" font-size="12.5" font-weight="400" fill="#666666" text-anchor="start">45 min</text><rect x="782" y="266" width="448" height="1" rx="0" fill="#ebebeb" stroke="none" stroke-width="1" opacity="1"/><text x="782" y="292" font-family="Satoshi, -apple-system, 'Segoe UI', Roboto, Helvetica, Arial, sans-serif" font-size="13" font-weight="400" fill="#181818" text-anchor="start">Preço R$ 350</text><text x="1230" y="292" font-family="Satoshi, -apple-system, 'Segoe UI', Roboto, Helvetica, Arial, sans-serif" font-size="13" font-weight="500" fill="#4a7c59" text-anchor="end">Lucro R$ 270</text><rect x="252" y="328" width="492" height="134" rx="8" fill="#ffffff" stroke="none" stroke-width="1" opacity="1"/><text x="274" y="368" font-family="Satoshi, -apple-system, 'Segoe UI', Roboto, Helvetica, Arial, sans-serif" font-size="15.5" font-weight="500" fill="#181818" text-anchor="start">Design de sobrancelha</text><rect x="274" y="381" width="73.6" height="22" rx="11" fill="#e3f1fc" stroke="none" stroke-width="1" opacity="1"/><text x="282" y="396" font-family="Satoshi, -apple-system, 'Segoe UI', Roboto, Helvetica, Arial, sans-serif" font-size="12" font-weight="500" fill="#2c6690" text-anchor="start">Estética</text><g transform="translate(624 382) scale(0.625)" fill="none" stroke="#767676" stroke-width="1.8" stroke-linecap="round" stroke-linejoin="round"><path d="M4 6h16v14H4z M4 10h16 M8 3v4 M16 3v4"/></g><text x="646" y="394" font-family="Satoshi, -apple-system, 'Segoe UI', Roboto, Helvetica, Arial, sans-serif" font-size="12.5" font-weight="400" fill="#666666" text-anchor="start">30 min</text><rect x="274" y="416" width="448" height="1" rx="0" fill="#ebebeb" stroke="none" stroke-width="1" opacity="1"/><text x="274" y="442" font-family="Satoshi, -apple-system, 'Segoe UI', Roboto, Helvetica, Arial, sans-serif" font-size="13" font-weight="400" fill="#181818" text-anchor="start">Preço R$ 90</text><text x="722" y="442" font-family="Satoshi, -apple-system, 'Segoe UI', Roboto, Helvetica, Arial, sans-serif" font-size="13" font-weight="500" fill="#4a7c59" text-anchor="end">Lucro R$ 78</text><rect x="760" y="328" width="492" height="134" rx="8" fill="#ffffff" stroke="none" stroke-width="1" opacity="1"/><text x="782" y="368" font-family="Satoshi, -apple-system, 'Segoe UI', Roboto, Helvetica, Arial, sans-serif" font-size="15.5" font-weight="500" fill="#181818" text-anchor="start">Aplicação de lash</text><rect x="782" y="381" width="73.6" height="22" rx="11" fill="#e3f1fc" stroke="none" stroke-width="1" opacity="1"/><text x="790" y="396" font-family="Satoshi, -apple-system, 'Segoe UI', Roboto, Helvetica, Arial, sans-serif" font-size="12" font-weight="500" fill="#2c6690" text-anchor="start">Estética</text><g transform="translate(1132 382) scale(0.625)" fill="none" stroke="#767676" stroke-width="1.8" stroke-linecap="round" stroke-linejoin="round"><path d="M4 6h16v14H4z M4 10h16 M8 3v4 M16 3v4"/></g><text x="1154" y="394" font-family="Satoshi, -apple-system, 'Segoe UI', Roboto, Helvetica, Arial, sans-serif" font-size="12.5" font-weight="400" fill="#666666" text-anchor="start">90 min</text><rect x="782" y="416" width="448" height="1" rx="0" fill="#ebebeb" stroke="none" stroke-width="1" opacity="1"/><text x="782" y="442" font-family="Satoshi, -apple-system, 'Segoe UI', Roboto, Helvetica, Arial, sans-serif" font-size="13" font-weight="400" fill="#181818" text-anchor="start">Preço R$ 260</text><text x="1230" y="442" font-family="Satoshi, -apple-system, 'Segoe UI', Roboto, Helvetica, Arial, sans-serif" font-size="13" font-weight="500" fill="#4a7c59" text-anchor="end">Lucro R$ 205</text></g></svg>